<svg xmlns="http://www.w3.org/2000/svg" viewBox="0 0 193.6 244.58"><defs><style>.cls-1{fill:#fff;stroke-width:4.15px;}.cls-1,.cls-2{stroke:#000;stroke-miterlimit:10;}.cls-2{fill:none;stroke-linecap:round;stroke-width:8px;}</style></defs><title>Asset 37</title><g id="Layer_2" data-name="Layer 2"><g id="TOP5"><path class="cls-1" d="M130.48,47.82,59.12,70.93c-17.29,5.6-28.69,19.52-28.69,35h0c0,26.4,31.64,44.57,61,35l15.17-4.91V238.25l15.55-21.13,16,12.83,7.4-21.59,19.4,9.36,8.38-18,18.14,3.51V82.87h0C191.52,56.48,159.88,38.31,130.48,47.82Z"/><ellipse class="cls-1" cx="68.56" cy="107.25" rx="34.97" ry="38.13" transform="translate(-41.66 170.92) rotate(-87.42)"/><ellipse class="cls-1" cx="66.13" cy="109.25" rx="10.39" ry="8.98"/><line class="cls-1" x1="106.65" y1="108.96" x2="106.65" y2="136.11"/><polyline class="cls-2" points="165.48 45.26 127.76 4.57 7.08 42.18 66.13 109.25 71.29 106.31"/></g></g></svg>