<svg xmlns="http://www.w3.org/2000/svg" viewBox="0 0 1880.81 603.64"><title>Asset 38</title><g id="Layer_2" data-name="Layer 2"><g id="Layer_25" data-name="Layer 25"><path d="M86.2,398.43c-32.78-11.06-87-28.52-80.84-74,1-7.5,4.36-14.44,7-21.54a121.46,121.46,0,0,0,7.08-53.49c-1.67-17.85-5.95-39.43,8-50.74,4.86-4,11.11-5.68,17.11-7.5,26.51-8,58.23-19.84,79.61-38.07C144,136.21,152,107.43,163.32,83.91c7.56-15.7,15.83-32.22,30.57-41.53s37.91-7.48,45.63,8.15c5,10.21,2.61,23.82,10.45,32.08,4.54,4.78,11.39,6.41,17.87,7.62C348.5,105.32,434.67,88.71,504,44.71c8.85-5.62,18-11.87,28.49-12.38,28.91-1.4,40.34,36.82,62.55,55.37,25.57,21.35,65.1,14,93.32-3.67s50.29-43.92,78.4-61.79,67.45-25.67,93.39-4.77c9.78,7.88,16.43,18.87,24.08,28.83,51.07,66.46,142.42,83.64,225.31,96l123.21,18.44c13.46,2,27.19,4,40.61,1.75,17.76-3,33.31-13.2,49-22.07,33.64-19,70-32.73,106.13-46.36,7.17-2.7,14.65-5.45,22.28-4.75,8.69.79,16.28,5.91,24,10,49.8,26.15,101.17,7.47,153.49,7.82,48.87.33,98.34,12.63,135.27,46.32,27.32,24.93,47.53,53,79.86,71.79,10.53,6.11,21.69,12.48,27.82,23,5.86,10.06,6.11,22.89,1.75,33.68s-13,19.56-23.14,25.26c-21.12,11.84-34.3,17.14-44.39,40.23-7.95,18.19-9.91,44.22-29.62,54.3-23.05,11.79-47.26,23.38-72.94,29.38-75,17.52-149.87,9.53-225.87,10.48-34.13.43-74,10.93-101.55,31.94-22.74,17.34-30.33,48.08-53.59,65-17.9,13-42.6,15.47-58.23,31.14-5.11,5.12-8.94,11.4-14.05,16.53-18.34,18.39-52.93,16-68.62-4.65-8.47-11.18-11.31-25.47-15.41-38.88-6.78-22.11-18.08-43.56-36.13-58-13.26-10.63-29.39-16.93-45.24-23.08-27.82-10.79-68.16-26.12-95.27-6.45-24.6,17.85-43.08,38.41-72.79,51.05-62.52,26.6-133.9,15.14-200.79,3.23-17.81-3.17-36.07-6.5-51.62-15.74-8.29-4.92-15.59-11.41-24.06-16-16.83-9.15-36.75-10.13-55.9-10.78-54.93-1.86-108.12-5.4-159.36,18.07-30.87,14.14-54.41,43.91-87.75,50.34-38.64,7.44-74.88-18.86-105.46-43.62C189.56,458,147,417.72,95.2,401.36,92.24,400.42,89.23,399.45,86.2,398.43Z"/><path d="M87.53,393.61c-24-8.1-53.51-16.62-69.44-37.9-9.57-12.78-9.8-27.75-4.45-42.35,6.89-18.77,12-36.89,11.24-57.12-.55-15.05-7.35-36,1.93-49.57,5.89-8.59,17.87-10.18,27.12-13.16,9-2.9,17.9-6.07,26.63-9.68,15.92-6.57,31.5-14.43,44.92-25.35,12.6-10.26,20.82-24.2,27.55-38.78,7.13-15.44,13.06-31.38,21.19-46.36,8.28-15.26,20.38-31.4,39.41-31.61,7.69-.08,16.16,2.55,20.47,9.36,4.68,7.39,3.84,17.08,6.62,25.17,5.7,16.63,23,18.63,38.23,20.86,73.72,10.78,150.71-3.65,215.37-40.75,15.12-8.68,33.12-25.65,51.43-16.08,12.31,6.44,20.09,20.09,28.07,30.89C582,82.25,590.9,93,603.55,99.16c13.19,6.4,28.1,7.72,42.5,5.75,36.9-5,64.12-30,91.13-53.49s61.9-49.27,100-39.71c20.45,5.13,30.62,21.36,42.68,37.11A183.13,183.13,0,0,0,913.68,82.6c25.8,19.88,56.08,33.05,87.09,42.48,32.37,9.84,65.79,15.72,99.17,20.84q65.68,10.06,131.43,19.68c18.68,2.76,37.24,4.91,55.47-1.45,17.87-6.24,33.63-17.37,50.33-26.06,19.88-10.33,40.53-19.08,61.39-27.24,9.28-3.63,18.59-7.17,27.92-10.68,11.24-4.23,21.66-8.14,33.33-3,7.9,3.46,15.12,8.21,23.14,11.48a128.22,128.22,0,0,0,32.12,8.29c18.88,2.45,37.91,1.15,56.78-.7,39-3.81,77.24-6.67,115.73,3.14a178.62,178.62,0,0,1,50.59,21.18c16.66,10.39,30.35,24.28,43.91,38.32,12.68,13.11,25.24,26.38,39.64,37.66,13.62,10.67,33.5,17.51,43.64,31.91,13.47,19.14,1,43-16.85,53.71-11.68,7-24.44,12.48-34.12,22.39-10,10.24-15,23.49-19.22,36.88-4.91,15.62-9.58,29.64-25,37.54-18.89,9.71-38.32,18.78-58.76,24.72-21.92,6.37-44.88,9.6-67.58,11.58-43.51,3.79-87.23,2-130.83,1.43-37.51-.5-73.76.17-108.92,14.89-15,6.3-30.15,14.64-41.31,26.75s-18.49,27-28.29,40.13c-11.63,15.57-26.48,22.71-44,29.86-15.83,6.45-27.69,13.94-38.46,27.33s-25,20.42-42.33,17.36c-19.34-3.41-29.21-17.94-34.73-35.67-10.79-34.6-23-66.91-56.28-85.8-14.92-8.48-31.55-14.41-47.67-20.19-15.13-5.43-31-10.09-47.13-10.63-36.36-1.2-58.41,29.35-86.2,47.94-33.42,22.36-74.26,29.2-113.83,28.74-40.66-.47-81.71-7.25-121.46-15.45-9.43-1.95-18.94-4.29-27.78-8.2-9.9-4.38-18-11.26-27-17.07-15.39-9.91-33.08-13.07-51.08-14.2-39.08-2.45-79.53-4.23-118.36,1.63a204.9,204.9,0,0,0-57.64,17.16c-16,7.62-29.64,19-44,29.11-14.71,10.4-30.65,19.89-49.06,21.08-19.67,1.28-38.55-6.36-55.17-16.21-33-19.57-60.76-47.23-91-70.63-29-22.45-58.94-39.4-93.76-51-6.12-2-8.74,7.62-2.66,9.64,19.38,6.45,37.58,13.86,55.07,24.55s33.67,23.09,49.5,36c29.47,23.94,58.07,52.3,93.07,68.1,16.05,7.25,33.37,11.36,51,9,16.9-2.3,31.9-10.59,45.72-20.18,14.83-10.29,28.76-22.12,45-30.14,19.7-9.7,41.71-15.07,63.44-17.68,20.51-2.46,41.23-2.54,61.86-2,21.33.51,43.69-.19,64.74,3.68a76.94,76.94,0,0,1,28.24,10.85c9,5.82,17.16,12.62,27,17.07,18,8.14,38,10.82,57.35,14.17,76.79,13.31,161.79,22.66,227.67-27.81,14.12-10.82,27.5-25.6,43.61-33.37,16.48-8,36.19-4.61,53.08.11,36.57,10.23,76.83,24.79,96.8,59.18,16.17,27.85,14.87,71.2,48.89,85a54.65,54.65,0,0,0,40.93.08c16.3-6.73,22.58-23.16,36.68-32.55,14.68-9.79,32.74-12.95,47.46-22.72,13.88-9.22,23-23.11,31.8-36.88,10.17-15.84,20.61-28.78,37.11-38.37,16.3-9.47,34.45-15.56,52.91-19.16,20.48-4,41.21-3.64,62-3.43,22.76.23,45.52.88,68.29,1,44,.22,88.72-1.53,131.68-12.06,19.91-4.88,38.87-12.95,57.26-21.87,15.48-7.51,27.55-14,34.84-30.2,6.32-14.06,8.53-29.71,16.67-43,8.26-13.47,22-20.13,35.3-27.62,14.22-8,26.47-20,29.93-36.56a43,43,0,0,0-14.11-42.09c-14.27-12.41-32-20-46.33-32.55-14.52-12.76-27.36-27.26-41-40.88-26.45-26.31-57.37-44.2-93.91-52.45-38.74-8.75-76.79-5.46-115.89-1.79-21.16,2-42.82,3.22-63.72-1.49a119.22,119.22,0,0,1-30.16-11.42c-7.43-4-14.72-8.32-23.29-9.18-9-.91-17.6,2.34-25.91,5.46-10.42,3.91-20.84,7.86-31.2,11.94-20,7.87-39.86,16.23-59,26-18.71,9.54-36.57,23.11-57.09,28.51-22.38,5.9-47.15-.86-69.5-4.2-41.8-6.26-83.71-12-125.41-19-67.8-11.28-142.56-28.59-189.46-83-11.7-13.57-20.23-30.28-35.61-40.28C844.44,1,827.49-1.29,811.46.63,773.49,5.18,745.61,31,717.94,55c-27.13,23.51-62.62,49.2-100.84,38.66-31.76-8.76-38.41-45-64.56-61-12.41-7.57-26.32-6.14-38.87.37-17.34,9-33.16,20.24-51,28.39A327.58,327.58,0,0,1,343.21,90.28a320.42,320.42,0,0,1-61.6-2.8c-8.5-1.23-21.84-1.7-28.11-8.41s-5-18.07-7.71-26.21c-10-30.23-49-23.68-66.34-4.76-24.57,26.82-28,66.38-51.28,93.87-11.85,14-29.32,23.06-45.85,30.32-8.78,3.86-17.81,7.18-26.91,10.21-8.33,2.77-17.42,4.58-25.27,8.59-14.27,7.28-18.06,22.15-17.59,37.11.65,20.73,4.14,39.76-1,60.42C7.28,305.83-2.29,320.91.5,339.24c1.83,12,8.4,22.6,17.21,30.81,18.45,17.2,43.74,25.3,67.16,33.19C91,405.31,93.61,395.65,87.53,393.61Z"/></g></g></svg>