<svg xmlns="http://www.w3.org/2000/svg" xmlns:xlink="http://www.w3.org/1999/xlink" viewBox="0 0 1306.33 772.5"><defs><style>.cls-1,.cls-11,.cls-21{fill:none;}.cls-2{fill:#231f20;}.cls-3{fill:blue;stroke:blue;stroke-width:0.08px;}.cls-11,.cls-21,.cls-3,.cls-6,.cls-7{stroke-miterlimit:10;}.cls-4{fill:url(#_10_dpi_50_);}.cls-5{fill:#203512;}.cls-6{fill:#2a6635;stroke:#000;}.cls-6,.cls-7{stroke-width:8.2px;}.cls-7{fill:#7cc46c;stroke:#396d38;}.cls-8{fill:#eaffa9;}.cls-9{fill:#f8ffb0;}.cls-10{fill:url(#BLUE_DOT);}.cls-11{stroke:#eaffa9;stroke-width:7.38px;}.cls-12,.cls-13,.cls-14,.cls-15,.cls-16,.cls-17,.cls-18,.cls-19{opacity:0.5;}.cls-12{fill:url(#radial-gradient);}.cls-13{fill:url(#radial-gradient-2);}.cls-14{fill:url(#radial-gradient-3);}.cls-15{fill:url(#radial-gradient-4);}.cls-16{fill:url(#radial-gradient-5);}.cls-17{fill:url(#radial-gradient-6);}.cls-18{fill:url(#radial-gradient-7);}.cls-20{fill:#b3f4ff;}.cls-21{stroke:#30703f;stroke-width:6px;}</style><pattern id="_10_dpi_50_" data-name="10 dpi 50%" width="28.8" height="28.8" patternTransform="translate(0 -56.88)" patternUnits="userSpaceOnUse" viewBox="0 0 28.8 28.8"><rect class="cls-1" width="28.8" height="28.8"/><circle class="cls-2" cx="28.8" cy="28.8" r="3.6"/><circle class="cls-2" cx="14.4" cy="28.8" r="3.6"/><circle class="cls-2" cx="28.8" cy="14.4" r="3.6"/><circle class="cls-2" cx="14.4" cy="14.4" r="3.6"/><circle class="cls-2" cx="7.2" cy="21.6" r="3.6"/><circle class="cls-2" cx="21.6" cy="21.6" r="3.6"/><circle class="cls-2" cx="7.2" cy="7.2" r="3.6"/><circle class="cls-2" cx="21.6" cy="7.2" r="3.6"/><circle class="cls-2" cy="28.8" r="3.6"/><circle class="cls-2" cy="14.4" r="3.6"/><circle class="cls-2" cx="28.8" r="3.6"/><circle class="cls-2" cx="14.4" r="3.6"/><circle class="cls-2" r="3.6"/></pattern><pattern id="BLUE_DOT" data-name="BLUE DOT" width="16.83" height="16.83" patternTransform="translate(0 -15.02)" patternUnits="userSpaceOnUse" viewBox="0 0 16.83 16.83"><rect class="cls-1" width="16.83" height="16.83"/><circle class="cls-3" cx="12.16" cy="14.03" r="0.76"/><circle class="cls-3" cx="6.55" cy="14.03" r="0.76"/><circle class="cls-3" cx="0.94" cy="14.03" r="0.76"/><circle class="cls-3" cx="14.03" cy="8.42" r="0.76"/><circle class="cls-3" cx="8.42" cy="8.42" r="0.76"/><circle class="cls-3" cx="2.81" cy="8.42" r="0.76"/><circle class="cls-3" cx="15.9" cy="2.81" r="0.76"/><circle class="cls-3" cx="10.29" cy="2.81" r="0.76"/><circle class="cls-3" cx="4.68" cy="2.81" r="0.76"/></pattern><radialGradient id="radial-gradient" cx="441.78" cy="306.61" r="90.33" gradientUnits="userSpaceOnUse"><stop offset="0" stop-color="#15a6ff" stop-opacity="0.97"/><stop offset="0.42" stop-color="#7dced9" stop-opacity="0.54"/><stop offset="0.82" stop-color="#daf1b7" stop-opacity="0.15"/><stop offset="1" stop-color="#feffaa" stop-opacity="0"/></radialGradient><radialGradient id="radial-gradient-2" cx="499.03" cy="343.74" r="45.17" xlink:href="#radial-gradient"/><radialGradient id="radial-gradient-3" cx="1095.68" cy="783.53" r="45.17" gradientTransform="translate(-1051.75 -1008.49) scale(1.85 1.48)" xlink:href="#radial-gradient"/><radialGradient id="radial-gradient-4" cx="661.23" cy="-2656.22" r="45.17" gradientTransform="translate(698.66 1248.73) scale(0.48 0.42)" xlink:href="#radial-gradient"/><radialGradient id="radial-gradient-5" cx="768.19" cy="-2374.55" r="45.17" gradientTransform="translate(698.66 1248.73) scale(0.48 0.42)" xlink:href="#radial-gradient"/><radialGradient id="radial-gradient-6" cx="630.59" cy="-2628.02" r="45.17" gradientTransform="translate(698.66 1248.73) scale(0.48 0.42)" xlink:href="#radial-gradient"/><radialGradient id="radial-gradient-7" cx="719.51" cy="-2269.42" r="45.17" gradientTransform="translate(698.66 1248.73) scale(0.48 0.42)" xlink:href="#radial-gradient"/></defs><title>Asset 36</title><g id="Layer_2" data-name="Layer 2"><g id="TOP5"><ellipse class="cls-4" cx="653.17" cy="668.5" rx="649.07" ry="104"/><path class="cls-5" d="M653.17,1a.5.5,0,0,0,0-1,.5.5,0,0,0,0,1Z"/><path class="cls-6" d="M17.14,296.27C-62.45,618.27,240.81,592.76,425.05,659c153.5,55.2,390.86,85.43,658.06-39.43,131.25-61.33,237.36-210.28,216-375.88C1286.21,143.21,1158.44,5.81,602.71,43.93,255.84,67.72,33.93,228.36,17.14,296.27Z"/><path class="cls-7" d="M1299.15,243.7C1286.21,143.21,1158.44,5.81,602.71,43.93,255.84,67.72,33.93,228.36,17.14,296.27q-1,4.08-1.93,8.08c-8.29,35.83,69.14,71.16,97.16,97.06,85.28,78.86,278.53,85.43,514.51,85.43,274.75,0,413-44.36,560-109.74,18.71-8.32,112.06-46.44,114.89-81.7C1303.11,278.44,1301.39,261.14,1299.15,243.7Z"/><path class="cls-8" d="M466.84,148.85c58-19.76,119.15-25.15,179.74-30.42l190.33-16.55c54.23-4.72,109.12-9.4,162.78.26s106.84,35.34,140.5,81.43c21.08,28.86,33.53,69.24,19.26,102.59-12.63,29.51-42.79,45.87-72.34,52.24s-60.14,5-89.82,10.6c-33.5,6.35-64.94,21.43-97.48,32.12-111.75,36.73-231.8,20.69-347.63,4.33-54.73-7.73-110.31-15.71-160.87-39.59C371.39,336.45,352,323.37,338.1,305a84.56,84.56,0,0,1-11.85-21.24,73.25,73.25,0,0,1-3.37-12c-.39-2-.69-4.08-.89-6.14-.28-2.9-1.48-7.75-.2-10.48s2.14-2.59,3.83-5.06q5.2-7.58,11-14.68a238.23,238.23,0,0,1,25-26.28,280,280,0,0,1,59.26-40.72A334.36,334.36,0,0,1,466.84,148.85Z"/><path class="cls-8" d="M467.82,152.41c61.88-21,127.36-25.82,192-31.44,67.44-5.86,134.87-12.12,202.35-17.53,62-5,126.28-7,185.29,15.83,49.93,19.28,98.13,58.32,111.46,112.29,6.5,26.31,2.21,54.37-17,74.4-18.64,19.44-45.17,28-71.21,31.57-16.39,2.25-32.95,2.89-49.4,4.49a255.42,255.42,0,0,0-47.55,9c-30.45,9-59.33,22.45-89.87,31.18C822.26,399.76,757.59,402.06,694,398c-32.13-2.06-64.13-5.72-96-9.92-31.3-4.12-62.66-8.29-93.8-13.57-30.79-5.22-61.47-12-90.7-23.2-27.28-10.42-54.74-24.81-72.58-48.71A81.49,81.49,0,0,1,325.06,261c-.35-3.59.54-5,2.68-7.59,2.45-3,4.53-6.38,6.87-9.49a223.78,223.78,0,0,1,15.58-18.41c21.12-22.47,46.5-40.56,73.9-54.59a333.22,333.22,0,0,1,43.73-18.46c4.47-1.53,2.55-8.66-2-7.12-30.7,10.54-60.14,25-86.28,44.39a257.61,257.61,0,0,0-35.12,31.12q-8.1,8.68-15.29,18.14c-2.32,3-4.37,6.29-6.73,9.29-1.91,2.43-4,4.32-4.63,7.47-.62,2.9,0,5.84.34,8.73a108.47,108.47,0,0,0,2,12.14A81.12,81.12,0,0,0,329,298c7.37,12.6,17.7,23.29,29.2,32.17,24.34,18.78,54.37,30,83.69,38.28,31.09,8.81,63.07,13.93,95,18.53,32.52,4.68,65.06,9.29,97.7,13,65.51,7.44,132.06,11,197.51,1,33-5.05,64.67-14.22,95.88-26,15.31-5.77,30.58-11.71,46.26-16.41a254.16,254.16,0,0,1,50.29-9.43c30.76-2.8,62.3-3.23,91-16.12,23.69-10.65,43.73-29.59,50.8-55.14,7.48-27.05.23-56.33-12.93-80.42-13.4-24.53-33.84-45-56.78-60.76C1046.32,102.23,984.82,92.27,925,92.83c-35,.33-69.85,3.77-104.68,6.8l-105.09,9.14c-34.4,3-68.82,5.78-103.2,9.08-33.24,3.19-66.48,7.22-99.12,14.41a445.83,445.83,0,0,0-47.09,13C461.39,146.81,463.31,153.94,467.82,152.41Z"/><path class="cls-9" d="M489,262.13c-4.26-25.66,72.49-66.4,257.25-85.46s289.23-6.57,297.76,25-30.56,75.57-253,99.89S493.27,287.79,489,262.13Z"/><path class="cls-10" d="M489,262.13c-4.26-25.66,72.49-66.4,257.25-85.46s289.23-6.57,297.76,25-30.56,75.57-253,99.89S493.27,287.79,489,262.13Z"/><path class="cls-11" d="M489,262.13c-4.26-25.66,72.49-66.4,257.25-85.46s289.23-6.57,297.76,25-30.56,75.57-253,99.89S493.27,287.79,489,262.13Z"/><ellipse class="cls-12" cx="441.78" cy="304.86" rx="13.5" ry="10"/><ellipse class="cls-13" cx="499.03" cy="342.86" rx="6.75" ry="5"/><ellipse class="cls-14" cx="977.28" cy="145.99" rx="12.5" ry="7.38"/><ellipse class="cls-15" cx="1017.03" cy="141.61" rx="3.25" ry="2.08"/><ellipse class="cls-16" cx="1068.53" cy="258.97" rx="3.25" ry="2.08"/><ellipse class="cls-17" cx="1002.28" cy="153.36" rx="3.25" ry="2.08"/><ellipse class="cls-18" cx="1045.09" cy="302.78" rx="3.25" ry="2.08"/><g class="cls-19"><path class="cls-20" d="M489,262.13c-4.26-25.66,72.49-66.4,257.25-85.46s289.23-6.57,297.76,25-30.56,75.57-253,99.89S493.27,287.79,489,262.13Z"/><path class="cls-21" d="M489,262.13c-4.26-25.66,72.49-66.4,257.25-85.46s289.23-6.57,297.76,25-30.56,75.57-253,99.89S493.27,287.79,489,262.13Z"/></g></g></g></svg>