<svg xmlns="http://www.w3.org/2000/svg" viewBox="0 0 1427 777.52"><defs><style>.cls-1,.cls-2,.cls-5{fill:none;}.cls-1,.cls-2,.cls-3,.cls-5{stroke:blue;}.cls-1,.cls-2,.cls-3,.cls-4,.cls-5{stroke-linecap:round;stroke-miterlimit:10;}.cls-1,.cls-4{stroke-width:9px;}.cls-2{stroke-width:8.32px;}.cls-3{fill:blue;stroke-width:3px;}.cls-4{fill:#fff;stroke:#fff;}.cls-5{stroke-width:10.07px;}</style></defs><title>Asset 12</title><g id="Layer_2" data-name="Layer 2"><g id="TOP4"><path class="cls-1" d="M971.85,14.87a66,66,0,1,1,71,111.28"/><circle class="cls-2" cx="740.64" cy="507.93" r="77.19"/><path class="cls-3" d="M267.5,244c-146.91,0-266,119.09-266,266s119.09,266,266,266,266-119.09,266-266S414.41,244,267.5,244Zm0,494.45C141.33,738.47,39.05,636.19,39.05,510S141.33,281.57,267.5,281.57,495.95,383.85,495.95,510,393.67,738.47,267.5,738.47Z"/><path class="cls-3" d="M1159.5,244c-146.91,0-266,119.09-266,266s119.09,266,266,266,266-119.09,266-266S1306.41,244,1159.5,244Zm0,494.45c-126.17,0-228.45-102.28-228.45-228.45s102.28-228.45,228.45-228.45S1387.95,383.85,1387.95,510,1285.67,738.47,1159.5,738.47Z"/><circle class="cls-4" cx="267.5" cy="510.02" r="51.64"/><circle class="cls-4" cx="1159.5" cy="510.02" r="51.64"/><path class="cls-1" d="M269.81,510h341c1.08,0,130.33-1.13,129.85-2.09L539,164.91a1.44,1.44,0,0,0-2.59,0l-267.94,343A1.44,1.44,0,0,0,269.81,510Z"/><line class="cls-1" x1="1159.5" y1="510.02" x2="970.85" y2="15.45"/><line class="cls-1" x1="740.64" y1="507.93" x2="1044.25" y2="207.87"/><path class="cls-1" d="M539.51,17.92"/><path class="cls-5" d="M724.73,591.46,272.21,565c-31.69-1.86-56.35-25.9-56.35-54.94h0c0-29,24.66-53.08,56.35-54.94l452.51-26.5c51.42-3,94.94,34.32,94.94,81.44h0C819.67,557.14,776.15,594.47,724.73,591.46Z"/><polyline class="cls-1" points="1026.87 162.32 539.51 162.32 483.05 68"/><path class="cls-4" d="M409,41.18c0-25.5,48-19.19,73.5-6s98.36,2.5,98.36,20.5-116.36,13-116.36,13S409,66.68,409,41.18Z"/></g></g></svg>