<svg xmlns="http://www.w3.org/2000/svg" xmlns:xlink="http://www.w3.org/1999/xlink" viewBox="0 0 178.51 339.6"><defs><style>.cls-1,.cls-7{fill:none;}.cls-2,.cls-6{fill:blue;stroke:blue;}.cls-2,.cls-6,.cls-7{stroke-miterlimit:10;}.cls-2{stroke-width:0.08px;}.cls-3{fill:url(#BLUE_DOT);}.cls-4{fill:#ff8aab;}.cls-5{fill:#ffe6e6;}.cls-6,.cls-7{stroke-width:1.19px;}.cls-7{stroke:#fff;}</style><pattern id="BLUE_DOT" data-name="BLUE DOT" width="16.83" height="16.83" patternTransform="translate(-2.06 -27.46)" patternUnits="userSpaceOnUse" viewBox="0 0 16.83 16.83"><rect class="cls-1" width="16.83" height="16.83"/><circle class="cls-2" cx="12.16" cy="14.03" r="0.76"/><circle class="cls-2" cx="6.55" cy="14.03" r="0.76"/><circle class="cls-2" cx="0.94" cy="14.03" r="0.76"/><circle class="cls-2" cx="14.03" cy="8.42" r="0.76"/><circle class="cls-2" cx="8.42" cy="8.42" r="0.76"/><circle class="cls-2" cx="2.81" cy="8.42" r="0.76"/><circle class="cls-2" cx="15.9" cy="2.81" r="0.76"/><circle class="cls-2" cx="10.29" cy="2.81" r="0.76"/><circle class="cls-2" cx="4.68" cy="2.81" r="0.76"/></pattern></defs><title>Asset 18</title><g id="Layer_2" data-name="Layer 2"><g id="TOP1"><path class="cls-3" d="M132.61,286.26c15.92,31.36-25.21,53.81-63.34,51.31S-1.28,311.38,0,291.14,37.61,250.54,75.75,253,123.51,268.33,132.61,286.26Z"/><path class="cls-4" d="M43.29,270.41c1.11,21.72,3.94,46.45,7.68,60.93,15.42,10,61.73,11.94,81.55,0a348.16,348.16,0,0,0,6.24-60.93Z"/><path class="cls-4" d="M40.08,276.06c23.61,10.75,86.72,10.11,102-1.78L144.71,249l-108.19.89Z"/><path class="cls-5" d="M36.52,249.9c13.56-15.25,89.84-17.39,108.19-.89C122.61,263.45,59.83,262.81,36.52,249.9Z"/><path class="cls-6" d="M113.5,248.71V164.89A128.19,128.19,0,0,0,139,161.25a41.45,41.45,0,0,0,27-23.17c17.14-38.28,16.46-98-6.1-98-44,0-2.68,77.58-46.37,80.85C111.72,106,122.42,9,91.51,7.36c-37.8-1.95-19,137.92-24.22,177.74h0a31.28,31.28,0,0,1-14.61-27.7c1.22-31.31,6.81-88.82-17.05-88.82-28.78,0-24.81,82.86-18,127.47A36.06,36.06,0,0,0,48,226.24l19.25,2.85v19.62C69.34,253.71,110.56,254.66,113.5,248.71Z"/><path class="cls-7" d="M76.65,249.9S66.54,7.36,88.54,9.74,106.37,249.9,106.37,249.9"/><line class="cls-7" x1="90.51" y1="249.9" x2="88.54" y2="9.74"/><path class="cls-7" d="M112.91,132.79c45.18-11.29,28.92-92.74,47-92.74,17.59,12.48,20.81,114.14-44.58,109.45"/><path class="cls-7" d="M112.91,142.3c43.95-4.72,42.77-42.68,47-102.25"/><path class="cls-7" d="M67.29,201.75C25.63,183.42,54.65,71.26,33.85,67.4,20.91,62,2.34,232.66,67.29,225.53"/><path class="cls-7" d="M71.3,217.2C30.56,208.3,26,146.87,33.85,67.4"/><path class="cls-4" d="M82.71,3.59c1.22,2.1,2.81,6.37,5.92,5.89,2.92-.45,5-3.91,5.86-6.44.24-.73-.91-1-1.15-.32C92.59,5,90.88,7.86,88.27,8c-1.25.07-1.43-.12-2.15-1a11.51,11.51,0,0,1-.8-1.25c-.53-.9-1.06-1.81-1.58-2.72a.59.59,0,0,0-1,.6Z"/><path class="cls-4" d="M88.06.57a72.54,72.54,0,0,0,.12,8.2c.05.76,1.24.76,1.19,0a72.54,72.54,0,0,1-.12-8.2c0-.77-1.16-.76-1.19,0Z"/><path class="cls-4" d="M28.4,64c.77,1.8,2,5.38,4.53,4.41a9.52,9.52,0,0,0,5.24-5.61c.27-.72-.88-1-1.15-.32a8.48,8.48,0,0,1-3.59,4.35,1.43,1.43,0,0,1-1.38.23c-.86-.14-.94-.41-1.35-1.09a20.89,20.89,0,0,1-1.29-2.57c-.3-.7-1.32-.1-1,.6Z"/><path class="cls-4" d="M31.43,60.48a15.39,15.39,0,0,1,.86,7.58c-.1.75,1,1.07,1.15.32a16.6,16.6,0,0,0-.86-8.21c-.26-.71-1.41-.4-1.15.32Z"/><path class="cls-4" d="M6.6,161.23A4.37,4.37,0,0,0,11.27,165c3.06-.07,5.1-2.87,6.48-5.27a.59.59,0,0,0-1-.6c-1,1.71-2.14,3.49-4,4.31s-4.65.15-4.92-2.17c-.09-.75-1.28-.76-1.19,0Z"/><path class="cls-4" d="M9.34,156.46l2.24,6.93c.23.73,1.38.41,1.15-.32l-2.24-6.93c-.23-.73-1.38-.41-1.15.32Z"/><path class="cls-4" d="M155.68,35.37a4.88,4.88,0,1,0,9.53,2.1c.17-.75-1-1.06-1.15-.32a3.7,3.7,0,1,1-7.23-1.47c.15-.75-1-1.07-1.15-.32Z"/><path class="cls-4" d="M158.46,33.5v5.75a.59.59,0,0,0,1.19,0V33.5a.59.59,0,0,0-1.19,0Z"/><path class="cls-4" d="M70.8,186.32a4.1,4.1,0,0,0,3.67,5.25,4.18,4.18,0,0,0,3.31-1.43c1.06-1.25,1.15-3,2.42-4.12.58-.5-.26-1.34-.84-.84-1.31,1.14-1.4,2.89-2.48,4.16a2.87,2.87,0,0,1-4.93-2.7.6.6,0,0,0-1.15-.32Z"/><path class="cls-4" d="M73,184.49l1,5.17c.14.75,1.29.43,1.15-.32l-1-5.17c-.14-.75-1.29-.43-1.15.32Z"/><path class="cls-4" d="M84.31,113.86c.9,2.65,2.46,6.28,5.74,6.4s5-3.58,5.93-6.3c.24-.73-.91-1-1.15-.32-.71,2.16-2.06,5.76-5,5.39-2.55-.33-3.7-3.37-4.42-5.49-.24-.72-1.39-.41-1.15.32Z"/><path class="cls-4" d="M89,110.59v7.67a.59.59,0,0,0,1.19,0v-7.67a.59.59,0,0,0-1.19,0Z"/><path class="cls-4" d="M149,93.57a32.6,32.6,0,0,0,1.41,6.41c.42,1.24,1,3.61,2.28,4.25,2.72,1.33,4.64-4.27,5-6,.16-.75-1-1.07-1.15-.32a10.56,10.56,0,0,1-1.3,3.41c-.48.78-.74,1.45-1.76,1.38s-1-.55-1.45-1.69a30.87,30.87,0,0,1-1.86-7.43c-.09-.75-1.28-.76-1.19,0Z"/><path class="cls-4" d="M152.84,93.58l1,9.62c.08.75,1.27.76,1.19,0l-1-9.62c-.08-.75-1.27-.76-1.19,0Z"/><path class="cls-4" d="M142.88,137.28c-2.79,1.91-5.85,5.1-4.28,8.79,1.15,2.69,5.06,3.36,6.61.67a.59.59,0,0,0-1-.6,2.46,2.46,0,0,1-3.25.87,3.36,3.36,0,0,1-1.52-3.23c.13-2.45,2.21-4.19,4.07-5.47.63-.43,0-1.46-.6-1Z"/><path class="cls-4" d="M139.88,145.37a34.47,34.47,0,0,0,9.32-2.51c.7-.3.1-1.32-.6-1a32.4,32.4,0,0,1-8.72,2.35c-.75.09-.76,1.28,0,1.19Z"/><path class="cls-4" d="M71.17,59.09a15.59,15.59,0,0,0,1,6.76c.55,1.37,1.44,3.58,2.89,4.25,3.51,1.62,5.49-5.48,5.88-7.67.14-.75-1-1.07-1.15-.32a15.23,15.23,0,0,1-1.41,4.34A5.61,5.61,0,0,1,77.48,68c-2,1.79-2.56.49-3.32-.81a14.23,14.23,0,0,1-1.8-8.11c0-.76-1.14-.76-1.19,0Z"/><path class="cls-4" d="M75.36,59.07a23.59,23.59,0,0,1-1.23,8.16c-.24.73.9,1,1.15.32a24.53,24.53,0,0,0,1.27-8.48.59.59,0,0,0-1.19,0Z"/><path class="cls-4" d="M102,172.06a4.64,4.64,0,0,0,2.19,6.46c2.89,1.12,6-1.49,5.86-4.45,0-.76-1.22-.77-1.19,0,.1,2.19-2.26,4.31-4.43,3.26a3.44,3.44,0,0,1-1.41-4.67.59.59,0,0,0-1-.6Z"/><path class="cls-4" d="M104,168.39l.77,8.3c.07.76,1.26.76,1.19,0l-.77-8.3c-.07-.76-1.26-.76-1.19,0Z"/><path class="cls-4" d="M37.31,196.08a5.31,5.31,0,0,0,10-3.45c-.17-.75-1.31-.43-1.15.32a4.3,4.3,0,0,1-2.86,5.1,4.36,4.36,0,0,1-5-2.57c-.32-.7-1.34-.09-1,.6Z"/><path class="cls-4" d="M40.21,189.17a36.27,36.27,0,0,1,2.64,9.89c.09.75,1.28.76,1.19,0a38.32,38.32,0,0,0-2.81-10.49c-.3-.7-1.32-.1-1,.6Z"/><path class="cls-4" d="M38.05,110.23l1.76,6.24c.37,1.3.53,3.5,1.57,4.47,2,1.89,5.74-2.65,6.83-3.95.49-.58-.35-1.43-.84-.84a20,20,0,0,1-2.51,2.55c-.82.69-1.27,1.31-2.32.88s-.87-.88-1.15-1.87l-2.2-7.8a.59.59,0,0,0-1.15.32Z"/><path class="cls-4" d="M42.05,109.75a39.53,39.53,0,0,1,.69,10.05c0,.76,1.15.76,1.19,0a40.83,40.83,0,0,0-.74-10.37c-.15-.75-1.3-.43-1.15.32Z"/><path class="cls-4" d="M100.35,229.44c1.51,2.33,1.75,6.67,4.8,7.69,4.1,1.37,5.87-3.58,6.42-6.59.14-.75-1-1.07-1.15-.32a9.34,9.34,0,0,1-1.65,4.59c-1.49,1.73-3.64,1.65-4.81-.22s-1.42-4-2.57-5.75c-.41-.64-1.44,0-1,.6Z"/><path class="cls-4" d="M106.23,226.43l-1.9,9c-.16.75,1,1.07,1.15.32l1.9-9c.16-.75-1-1.07-1.15-.32Z"/><path class="cls-4" d="M168.56,123.44c-1.63,2.62-2.11,7.23,1.23,8.81,2.38,1.13,5.82-.21,5.91-3.07,0-.77-1.17-.76-1.19,0-.07,2.23-3.2,2.87-4.72,1.67-2.09-1.64-1.41-4.88-.21-6.81.41-.65-.62-1.25-1-.6Z"/><path class="cls-4" d="M172.21,123.46l-3,6.16c-.34.68.69,1.29,1,.6l3-6.16c.34-.68-.69-1.29-1-.6Z"/><path class="cls-4" d="M129.87,75.93q2.25,3.9,4.6,7.75a.6.6,0,0,0,1,0l6-8.44c.44-.62-.59-1.22-1-.6l-6,8.44h1q-2.35-3.85-4.6-7.75a.59.59,0,0,0-1,.6Z"/><path class="cls-4" d="M134.21,74.57a23.15,23.15,0,0,1,.58,7.52c-.06.76,1.13.76,1.19,0a24.14,24.14,0,0,0-.63-7.83c-.18-.74-1.33-.43-1.15.32Z"/><path class="cls-4" d="M61.57,139.19c.93,2.2,1.76,4.51,2.82,6.66.49,1,.94,1.73,2.11,1.89,2.77.36,6.2-2.68,8-4.48.54-.55-.3-1.39-.84-.84-1.24,1.26-6,5.6-8,3.38a12,12,0,0,1-1.31-3l-1.76-4.16c-.3-.7-1.32-.1-1,.6Z"/><path class="cls-4" d="M66.32,138.78a19.66,19.66,0,0,0-1.17,9.14c.08.75,1.27.76,1.19,0a19,19,0,0,1,1.12-8.83c.27-.72-.88-1-1.15-.32Z"/><path class="cls-4" d="M107.05,46.12l2.85,5.55a.6.6,0,0,0,.67.27,13.35,13.35,0,0,0,6.82-5.34c.42-.64-.61-1.24-1-.6a12,12,0,0,1-6.11,4.8l.67.27-2.85-5.55c-.35-.68-1.38-.08-1,.6Z"/><path class="cls-4" d="M111.71,42.9a21.6,21.6,0,0,0-1.21,7.87c0,.76,1.21.77,1.19,0a20.7,20.7,0,0,1,1.16-7.55c.25-.72-.9-1-1.15-.32Z"/></g></g></svg>