<svg xmlns="http://www.w3.org/2000/svg" xmlns:xlink="http://www.w3.org/1999/xlink" viewBox="0 0 227.37 265.07"><defs><style>.cls-1{fill:none;}.cls-2{fill:blue;stroke-width:0.08px;}.cls-2,.cls-3{stroke:blue;stroke-miterlimit:10;}.cls-3{fill:#fff;stroke-width:0.46px;}.cls-4{fill:url(#BLUE_DOT);}</style><pattern id="BLUE_DOT" data-name="BLUE DOT" width="16.83" height="16.83" patternTransform="translate(1.61 -22.2) scale(0.92)" patternUnits="userSpaceOnUse" viewBox="0 0 16.83 16.83"><rect class="cls-1" width="16.83" height="16.83"/><circle class="cls-2" cx="12.16" cy="14.03" r="0.76"/><circle class="cls-2" cx="6.55" cy="14.03" r="0.76"/><circle class="cls-2" cx="0.94" cy="14.03" r="0.76"/><circle class="cls-2" cx="14.03" cy="8.42" r="0.76"/><circle class="cls-2" cx="8.42" cy="8.42" r="0.76"/><circle class="cls-2" cx="2.81" cy="8.42" r="0.76"/><circle class="cls-2" cx="15.9" cy="2.81" r="0.76"/><circle class="cls-2" cx="10.29" cy="2.81" r="0.76"/><circle class="cls-2" cx="4.68" cy="2.81" r="0.76"/></pattern></defs><title>Asset 17</title><g id="Layer_2" data-name="Layer 2"><g id="TOP1"><path class="cls-3" d="M113.69.23h0A113.46,113.46,0,0,1,227.14,113.69V264.84a0,0,0,0,1,0,0H.23a0,0,0,0,1,0,0V113.69A113.46,113.46,0,0,1,113.69.23Z"/><path class="cls-4" d="M227.14,113.69A113.46,113.46,0,0,0,113.69.23h0a113,113,0,0,0-70,24.17A113,113,0,0,1,91.25,14h0A113.46,113.46,0,0,1,204.71,127.42V264.84h22.43Z"/></g></g></svg>