<svg xmlns="http://www.w3.org/2000/svg" viewBox="0 0 205.71 170.92"><defs><style>.cls-1{fill:#f8e1b4;}.cls-2{fill:#a3d8b2;stroke:#a3d8b2;}.cls-2,.cls-3,.cls-4{stroke-miterlimit:10;}.cls-3{fill:#ff859c;stroke:#ff859c;}.cls-4{stroke:#000;}</style></defs><title>Asset 3</title><g id="Layer_2" data-name="Layer 2"><g id="Layer_5" data-name="Layer 5"><path class="cls-1" d="M1.73,10.08h0A8,8,0,0,1,13,8.78l89.38,70.75L92.42,92.08,3,21.32A8,8,0,0,1,1.73,10.08Z"/><path class="cls-2" d="M115,4.74C79.92-23-12.56,93.79,22.53,121.56l182.19,48.57Z"/><path class="cls-3" d="M125.89,24.83C90.8-2.95,7.3,99.31,42.39,127.08l162.33,43.05Z"/><circle class="cls-4" cx="171.63" cy="142.66" r="3.5"/><circle class="cls-4" cx="76.12" cy="80.45" r="3.5"/><circle class="cls-4" cx="85.36" cy="117.1" r="3.5"/><circle class="cls-4" cx="142.53" cy="88.38" r="3.5"/><circle class="cls-4" cx="120.32" cy="111.61" r="3.5"/><circle class="cls-4" cx="110.61" cy="46.54" r="3.5"/><circle class="cls-4" cx="142.47" cy="136.8" r="3.5"/></g></g></svg>