<svg xmlns="http://www.w3.org/2000/svg" viewBox="0 0 62.4 143.45"><defs><style>.cls-1{fill:#f8e1b4;}.cls-2{fill:#ffe7ca;}.cls-3{fill:#cdd7ee;}</style></defs><title>Asset 51</title><g id="Layer_2" data-name="Layer 2"><g id="Layer_5" data-name="Layer 5"><path class="cls-1" d="M31.26,143.45h0a5.5,5.5,0,0,1-5.5-5.5V78.45h11V138A5.5,5.5,0,0,1,31.26,143.45Z"/><path class="cls-2" d="M61.35,108.45H2V30.14A29.69,29.69,0,0,1,31.66.45h0A29.69,29.69,0,0,1,61.35,30.14Z"/><path class="cls-3" d="M58.38,89.25c-1.21.59-2.65.44-4.12-1.1s-1.83-3.66-1.94-5.71a36.43,36.43,0,0,1,2.22-13.93,12.54,12.54,0,0,0,1-4.18c0-6.63-6.14-1.89-7.16,1.68a32.11,32.11,0,0,0-.26,16.71,25.54,25.54,0,0,1,.58,2.56A11.73,11.73,0,0,1,48.33,90a7,7,0,0,1-1.65,3.2c-2,2-5.81,1.3-7.54-1-3-3.94-.17-9.94.77-14.18,1.23-5.59,2.44-11.23,2.57-17,.09-3.87-.6-8.28-3.8-10.46a6.84,6.84,0,0,0-7.47-.06c-2.61,1.73-3.68,5-4,8.16A25.36,25.36,0,0,0,28,67.62a30.4,30.4,0,0,1,1.24,5A16.41,16.41,0,0,1,28,79.55a13.67,13.67,0,0,1-2.45,4.69,5.57,5.57,0,0,1-4.69,2c-2.82-.36-4.51-3.4-5-6.21-.72-4.26.32-8.33,1.64-12.34a27.27,27.27,0,0,0,.84-11.6,13.72,13.72,0,0,1-.15-3.26c.34-2.58,1.13-4.48-.94-6.68a2.46,2.46,0,0,0-3-.6,5.39,5.39,0,0,0-2.17,3.67c-.55,2.41-.45,4.93-.84,7.37s-1.42,5-3.55,6.25a3.46,3.46,0,0,1-1.61.53,3.76,3.76,0,0,1-2.71-1.24C.71,59.51.74,55.24.93,51.47c.62-11.88-1.1-26.16,5.35-36.75A29.7,29.7,0,0,1,61.35,30.14V73.25c0,3.8.7,7.63,0,11.41A6.56,6.56,0,0,1,58.38,89.25Z"/><path class="cls-3" d="M58.24,88.74l-2.47-1.68q-2.85-.63-2.7-3.16a12.5,12.5,0,0,1-.28-3.23,33.28,33.28,0,0,1,1-7.76c.67-2.8,2.27-5.67,2.28-8.58,0-2.12-.77-4.12-3.16-3.75-3.07.48-4.83,4.34-5.45,6.93a32.45,32.45,0,0,0-.76,9.37c.22,3.5,2.39,8.19,1.35,11.47l-.23,1.5-5.49,3.83c-1.51-.28-3.67-3.86-3.9-5.17-.34-1.93.26-4,.76-5.88,1-3.66,1.89-7.28,2.58-11,1-5.42,2.31-11.91.32-17.25-1.33-3.55-4.61-6-8.52-5.32s-6,4.54-6.67,8.23c-1.43,8.1,3.44,15.37.12,23.31a7.8,7.8,0,0,1-1.12,2.33l-4.15.2q-3.91,2.13-4.62-.89c-1.66-2.06-1-6.75-.54-9.16.6-3.19,1.93-6.17,2.33-9.4.51-4.06-.3-8.08,0-12.14.16-1.89.4-3.35-.76-5-1.73-2.43-4.33-2.15-5.82.35-1,1.77-1,4-1.26,6-.28,2.44-.27,7.16-2.61,8.68L5.19,60c-2.41,0-3.59-1-3.53-2.9a12.81,12.81,0,0,1-.27-4.24c.12-6.74.06-13.57.55-20.29.59-8.11,2.58-16,8.22-22.17A29.62,29.62,0,0,1,30.19,1c16-.86,29.73,11.9,30.61,27.74.51,9.25,0,18.66,0,27.92V69.57c0,5.13,2.17,15.68-2.72,19.23-.53.39,0,1.29.53.9,5.71-4.15,3.23-13.2,3.23-19.21V41.56c0-7.43.74-15.12-2-22.2A30.22,30.22,0,0,0,15,5C2.16,13.46.74,28.06.6,42.2c-.06,5.58-2,14.26,1.46,19.17,2.88,4.08,7,2.46,8.87-1.65,1.17-2.62.39-11.17,2.33-12.27l2.42,1.29c2.55.39,3.22,1.72,2,4,0,.34,0,.47,0,1,0,2.5.49,5,.4,7.49-.27,7.15-5.45,15.06-1.67,22.11,1.94,3.6,5.87,4.67,9,1.77,5-4.58,4.4-11.74,3.05-17.58-1.28-5.51-2-14.11,4.28-16.63,8.35-3.34,9.52,7.36,9,13.06a90.91,90.91,0,0,1-2.69,15.18c-.8,3.08-2.1,6.27-1.81,9.51.37,4,4.51,8,8.67,5.74C52.18,91,47.86,80.91,47.69,76a28.54,28.54,0,0,1,1-9.07,9.72,9.72,0,0,1,.88-2.26c.84-1.43,3.82-4.95,5.47-.38.6,1.66-1.61,5.82-2,7.44A37.89,37.89,0,0,0,51.89,78c-.35,4,.09,13.79,6.62,11.73C59.15,89.55,58.88,88.54,58.24,88.74Z"/></g></g></svg>