<svg xmlns="http://www.w3.org/2000/svg" viewBox="0 0 64.26 144.92"><defs><style>.cls-1,.cls-2{fill:#ffc3c7;}.cls-1{stroke:#ffc3c7;stroke-miterlimit:10;}</style></defs><title>Asset 52</title><g id="Layer_2" data-name="Layer 2"><g id="Layer_5" data-name="Layer 5"><path class="cls-1" d="M26.69,79.42h11a0,0,0,0,1,0,0v59.5a5.5,5.5,0,0,1-5.5,5.5h0a5.5,5.5,0,0,1-5.5-5.5V79.42A0,0,0,0,1,26.69,79.42Z"/><path class="cls-2" d="M62.28,109.42H2.9V31.12A29.7,29.7,0,0,1,32.59,1.42h0a29.7,29.7,0,0,1,29.69,29.7Z"/><path class="cls-2" d="M62.28,107.92H2.9l1.5,1.5c0-26-.46-52.12,0-78.15C4.64,17.73,14,5.88,27.5,3.38A28.47,28.47,0,0,1,59.88,24.06c1.32,5.07.9,10.58.9,15.78v69.58a1.5,1.5,0,0,0,3,0V39.84c0-5.5.39-11.21-1-16.58C56.07-2.66,20.53-8.09,6.23,14.45,2.1,21,1.4,28.06,1.4,35.52v73.9a1.52,1.52,0,0,0,1.5,1.5H62.28A1.5,1.5,0,0,0,62.28,107.92Z"/><path class="cls-2" d="M59.31,90.22c-1.2.6-2.64.45-4.12-1.09s-1.82-3.66-1.94-5.71a36.43,36.43,0,0,1,2.23-13.93,13,13,0,0,0,1-4.19c0-6.62-6.15-1.88-7.17,1.69a32.21,32.21,0,0,0-.26,16.71,25,25,0,0,1,.59,2.56A11.91,11.91,0,0,1,49.26,91a6.92,6.92,0,0,1-1.65,3.2c-2,2-5.8,1.3-7.54-1-3-4-.17-9.94.77-14.18,1.24-5.59,2.45-11.23,2.58-17,.09-3.88-.6-8.28-3.8-10.47a6.86,6.86,0,0,0-7.47-.05c-2.61,1.73-3.68,5.05-4,8.16a25.13,25.13,0,0,0,.74,8.93,30.37,30.37,0,0,1,1.23,5,16.4,16.4,0,0,1-1.2,6.89,14,14,0,0,1-2.45,4.69,5.58,5.58,0,0,1-4.69,2c-2.83-.36-4.51-3.4-5-6.21-.72-4.26.32-8.33,1.64-12.35a27.23,27.23,0,0,0,.85-11.59,13.21,13.21,0,0,1-.15-3.26c.33-2.58,1.12-4.49-.94-6.68a2.46,2.46,0,0,0-3-.6A5.4,5.4,0,0,0,13,50.24c-.55,2.41-.44,4.93-.83,7.37s-1.43,5-3.55,6.25A3.53,3.53,0,0,1,7,64.39a3.72,3.72,0,0,1-2.7-1.24c-2.69-2.66-2.66-6.93-2.46-10.71C2.48,40.56.76,26.29,7.21,15.69A29.7,29.7,0,0,1,62.28,31.12V74.23c0,3.79.7,7.63,0,11.41A6.49,6.49,0,0,1,59.31,90.22Z"/><path class="cls-2" d="M58.91,88.78c-1.35.42-3.68-3.1-3.95-4a11.92,11.92,0,0,1-.25-3.1,31.53,31.53,0,0,1,1-7.5C56.36,71.26,58,68.32,58,65.3c0-2.68-1.37-5.34-4.4-4.69-3.42.74-5.41,4.57-6.14,7.62a33.16,33.16,0,0,0-.79,9.63C46.87,81.26,49,86,48,89.2c-.36,1.13-2.92,4.77-4.51,4.51-1.3-.21-3-3.25-3.19-4.35-.33-1.79.28-3.77.74-5.49,1-3.66,1.89-7.28,2.58-11C44.7,67.23,46,60.51,43.92,55c-1.5-4-5.2-6.66-9.54-5.9S27.59,54,26.87,58.13c-1.39,8,3.43,15.31.19,23.06A6.75,6.75,0,0,1,26,83.4l-3.31.2q-3.16,1.75-3.72-.77c-1.56-1.84-.9-6.35-.49-8.53.61-3.27,2-6.33,2.36-9.65.49-4-.33-7.91,0-11.88.18-2.15.44-3.86-.86-5.72-2.11-3-5.66-2.82-7.51.36-1.11,1.92-1.18,4.35-1.39,6.5-.16,1.55-.4,7.58-2.33,8C7.14,62.23,4,59.15,3.56,58a11.56,11.56,0,0,1-.25-4.11c.12-6.74,0-13.57.54-20.29C5,18,14.25,3.89,31.13,3,46.56,2.11,59.9,14.4,60.75,29.72c.52,9.24,0,18.66,0,27.92v12.9c0,4.6,2.13,15.22-2.23,18.39-1.54,1.12,0,3.73,1.52,2.59,6.14-4.46,3.71-13.52,3.71-20V42.54c0-7.52.72-15.29-2-22.46a31.21,31.21,0,0,0-46.32-15C2.28,13.8.7,28.65.56,43.18.5,49.06-1.39,57.64,2.15,62.84c3.26,4.79,8.51,3,10.61-1.76C13.59,59.19,14,49.14,15,48.92l1.51,1q2.65.84,1.15,3.48a11.67,11.67,0,0,0-.06,1.21c0,2.51.49,5,.39,7.5-.29,7.46-5.45,15.24-1.53,22.6,2.23,4.17,7,5.28,10.56,2,5.24-4.85,4.72-12.34,3.29-18.53C29.28,63.54,28.24,54.64,34,52.67c7.59-2.6,8.15,7.07,7.72,12.22A90.07,90.07,0,0,1,39.1,79.81C38.27,83,37,86.24,37.26,89.58c.38,4.71,5.34,9.22,10.14,6.58,6.74-3.72,2.4-13.62,2.21-19.15a26.9,26.9,0,0,1,1-8.8C50.93,67,53.16,61.9,55,65.3c.66,1.24-1.68,5.94-2,7.19A39.84,39.84,0,0,0,51.85,79c-.43,4.74.56,15,7.86,12.68C61.54,91.09,60.76,88.19,58.91,88.78Z"/></g></g></svg>