<svg xmlns="http://www.w3.org/2000/svg" viewBox="0 0 131 120"><defs><style>.cls-1{fill:#a16327;}.cls-2{fill:#facad6;}.cls-3{fill:#fff8d2;}.cls-4{fill:#cce5f7;}</style></defs><title>Asset 49</title><g id="Layer_2" data-name="Layer 2"><g id="Layer_5" data-name="Layer 5"><circle class="cls-1" cx="70.03" cy="30.1" r="30.1"/><circle class="cls-2" cx="100.13" cy="46.3" r="30.1"/><circle class="cls-3" cx="30.1" cy="46.5" r="30.1"/><path class="cls-4" d="M20.7,118.41,3,52.78c13.28,5.16,53.63,5.46,62.63,5.46s49.36-.3,62.64-5.46l-17.74,65.63Z"/><path class="cls-4" d="M125.91,55.29l-16.64,61.54H21.92L5.28,55.29A107.25,107.25,0,0,0,22,58c11.77,1.2,27.27,1.85,43.64,1.85s31.88-.65,43.65-1.85a107.25,107.25,0,0,0,16.67-2.68M131,48.62Zm0,0-.19.69a1.5,1.5,0,0,0,.19-.69ZM.19,48.62a1.5,1.5,0,0,0,.19.69l-.19-.69Zm130.62.69c-2.69,4.89-33.95,7.34-65.22,7.34S3.07,54.2.38,49.31L19.49,120H111.7l19.11-70.69Z"/></g></g></svg>