<svg xmlns="http://www.w3.org/2000/svg" viewBox="0 0 79.8 156.61"><defs><style>.cls-1{fill:#ffe29e;}.cls-2{fill:#fff;}.cls-3{fill:#b0daff;}</style></defs><title>Asset 47</title><g id="Layer_2" data-name="Layer 2"><g id="Layer_5" data-name="Layer 5"><path class="cls-1" d="M71.28,44.14C52.76,40.34,32.05,41.38,10,45.42A3.5,3.5,0,0,0,7.26,50L42.43,156.61,73.94,48.55A3.5,3.5,0,0,0,71.28,44.14Z"/><polygon class="cls-2" points="78.29 31.11 78.08 34.08 77.5 37 76.63 39.85 75.57 42.64 74.39 45.38 73.77 46.68 73.13 47.97 72.52 49.27 71.99 50.61 71.61 52 71.37 53.53 71.19 55.08 71.05 56.63 70.94 58.18 70.82 59.73 70.7 61.23 70.56 62.72 70.35 64.21 70.04 65.67 69.57 67.1 68.9 68.44 68.02 69.65 66.92 70.67 65.64 71.42 64.2 71.82 62.84 71.79 61.55 71.4 60.38 70.71 59.43 69.75 58.76 68.57 58.62 68.14 58.52 67.71 58.46 67.27 58.46 66.82 58.52 66.38 58.66 65.91 58.84 65.46 59.05 65.03 59.28 64.6 59.49 64.17 59.77 63.47 59.97 62.74 60.1 61.99 60.17 61.23 60.21 60.48 60.26 59.87 60.35 59.28 60.46 58.69 60.57 58.09 60.67 57.49 60.74 56.43 60.65 55.37 60.32 54.35 59.7 53.49 58.8 52.92 57.57 52.75 56.39 53.18 55.42 53.98 54.7 55.01 54.26 56.19 54.09 57.45 54.08 58.73 54.13 60.01 54.16 61.29 54.1 62.56 53.66 64.47 52.81 66.24 51.61 67.78 50.11 69.05 48.37 69.94 47.77 70.14 47.16 70.27 46.53 70.32 45.91 70.27 45.3 70.09 44.48 69.54 43.87 68.75 43.48 67.84 43.27 66.86 43.23 65.86 43.33 64.67 43.52 63.48 43.77 62.31 44.01 61.13 44.2 59.95 44.27 58.76 44.19 57.56 43.92 56.4 43.41 55.32 42.63 54.41 41.6 53.76 40.42 53.44 39.2 53.43 38.01 53.7 36.9 54.22 35.93 54.97 35.11 55.88 34.44 56.91 33.91 58.02 33.52 59.18 33.23 60.42 33.08 61.68 33.05 62.95 33.17 64.21 33.44 65.45 33.76 66.42 34.13 67.36 34.53 68.29 34.91 69.23 35.24 70.19 35.61 71.98 35.65 73.8 35.34 75.6 34.64 77.29 33.55 78.75 32.1 79.83 30.4 80.45 28.59 80.57 26.83 80.15 25.34 79.13 24.47 77.96 23.91 76.61 23.61 75.18 23.47 73.73 23.44 72.27 23.47 69.56 23.58 66.87 23.77 64.17 24.03 61.48 24.36 58.8 24.46 58.02 24.53 57.22 24.54 56.43 24.44 55.64 24.2 54.89 23.77 54.2 23.2 53.62 22.51 53.19 21.74 52.93 20.93 52.86 20.13 52.99 19.38 53.31 18.72 53.79 18.19 54.41 17.82 55.13 17.63 56.82 18.03 58.47 18.71 60.04 19.41 61.6 19.92 63.23 19.99 64.94 19.58 66.59 18.74 68.08 17.55 69.31 16.05 70.14 15.56 70.29 15.05 70.4 14.53 70.45 14.01 70.43 13.5 70.33 12.34 69.77 11.43 68.86 10.75 67.75 10.23 66.57 9.81 65.34 9.4 64.02 9.02 62.69 8.73 61.34 8.54 59.97 8.52 58.59 8.58 57.82 8.68 57.06 8.79 56.3 8.9 55.53 8.98 54.77 8.85 52.13 8.17 49.58 7.07 47.18 5.73 44.89 4.32 42.66 3.19 40.53 2.34 38.26 1.75 35.92 1.41 33.52 1.29 31.11 3.73 20.75 10.18 12.26 19.03 6.26 29.14 2.75 39.79 1.61 50.44 2.75 60.55 6.26 69.41 12.26 75.86 20.75 78.29 31.11"/><path class="cls-3" d="M76.79,31.11c-.44,6.26-2.88,11.43-5.41,17.07C69.26,52.9,69.73,58.05,69,63.07c-.36,2.53-1.2,5.72-3.8,6.86-1.92.85-4.86-.07-5.21-2.42-.17-1.18.62-2.05,1-3.12a24.27,24.27,0,0,0,.9-5.31c.28-2.26.71-4.66-1-6.49-2-2.08-5.07-1.43-6.75.63-2.14,2.62-1.19,5.65-1.5,8.7-.25,2.53-2.68,7.3-5.94,6.89-3.06-.38-1.72-4.68-1.35-6.69.47-2.63.83-5.57-.87-7.86-4.39-5.91-11.31,0-12.54,5.14a14,14,0,0,0,.83,8.54c1.12,2.88,2.3,6.15.31,9s-6.11,2.88-7.56-.35c-1-2.2-.59-5.27-.51-7.61.09-2.81.32-5.62.64-8.41.25-2.08.84-4.43-.15-6.41a4.91,4.91,0,0,0-9.22,1.44c-.49,3.09,1.86,5.19,2.17,8.1.23,2.17-1.57,5.71-4.23,5.27-4.85-.81-3.92-10.68-3.75-14,.35-6.88-4.92-11.29-6.76-17.46-2-6.52,0-14.19,3.71-19.13,1.17-1.54,2.27-3.19,3.53-4.66.94-1.09-.14,0,.33-.39.67-.55,1.48-1,2.2-1.48,3-2.05,5.42-3.95,8.46-5C28.24,4.65,33.71,2.9,40.67,3.2c6.75.29,13.91,1.64,19.47,4.58A56.13,56.13,0,0,1,65,11.08c.8.54,1.6,1.1,2.41,1.63.6.39,1.43,1.08.86.51a41.4,41.4,0,0,1,6.17,8c1.39,3,1.65,7,2.41,10.24.44,1.87,3.33,1.08,2.89-.8-.79-3.33-1.08-7.43-2.51-10.53-1.31-2.84-4.29-6.34-6.46-8.6C66,6.6,59.29,4.24,53,2,41.13-2.07,25.28.22,15,7.18c-5.2,3.52-10.83,8-12.95,14.13C-.27,28.09-1.08,35,2.07,41.62c1.56,3.28,4.09,6.05,5,9.64.71,2.8-.07,5.24,0,8,.07,4.37,2,12.5,7.37,12.66,6,.19,8-6.74,6.21-11.3-.53-1.35-3-7.64,1.11-6.13,2.36.87,1,5.1.82,6.83-.55,5-1.85,12.11.41,16.85,2.82,5.87,10.88,4.45,13.32-.94,3-6.66-3.93-12.43-.8-19,2.37-5,7.76-3.58,7.19,1.92-.3,2.84-1.56,5.62-.47,8.45,2.3,6,9.54,2.29,11.92-1.6,2.08-3.4.62-6.57,1.56-10.09.38-1.44,1.77-3.61,3.21-1.93.78.92.21,2.56.08,3.61a22.58,22.58,0,0,1-1,5.37c-.56,1.46-1.18,2.53-.86,4.16,1,5,7.17,6.59,10.92,3.62,4.47-3.55,4.11-10,4.56-15.1.53-6.08,3.59-10.7,5.53-16.38a35.14,35.14,0,0,0,1.71-9.14C79.93,29.18,76.93,29.19,76.79,31.11Z"/><path class="cls-3" d="M24.34,20.35l-.25-.5A5,5,0,0,0,15,21a5.49,5.49,0,0,0,.5,3.85l.25.5a5,5,0,0,0,3,2.3,5.12,5.12,0,0,0,3.85-.5,5.06,5.06,0,0,0,2.3-3,5.49,5.49,0,0,0-.5-3.85Z"/><path class="cls-3" d="M45.62,32.41l.75-.25a5.31,5.31,0,0,0,3-2.3A5,5,0,0,0,47.56,23a5,5,0,0,0-3.85-.5l-.75.25a5.3,5.3,0,0,0-3,2.3,5,5,0,0,0,1.79,6.84,5,5,0,0,0,3.86.5Z"/><path class="cls-3" d="M61.8,33.07l-.5-.26a5.26,5.26,0,0,0-3.85-.5,5.14,5.14,0,0,0-3,2.3,5,5,0,0,0,1.8,6.84l.5.25a5.31,5.31,0,0,0,3.85.51,5.11,5.11,0,0,0,3-2.3,5,5,0,0,0-1.8-6.84Z"/><path class="cls-3" d="M32.06,40.52l.24.75a1.54,1.54,0,0,0,1.85,1,1.52,1.52,0,0,0,1.05-1.85L35,39.72a1.53,1.53,0,0,0-1.84-1,1.52,1.52,0,0,0-1,1.85Z"/><path class="cls-3" d="M15.29,37.86a1.5,1.5,0,0,0,0-3,1.5,1.5,0,0,0,0,3Z"/><path class="cls-3" d="M37.29,17.61a1.5,1.5,0,0,0,0-3,1.5,1.5,0,0,0,0,3Z"/><path class="cls-3" d="M62.29,18.86v.75a1.5,1.5,0,1,0,3,0v-.75a1.5,1.5,0,0,0-3,0Z"/><path class="cls-3" d="M70.06,32.17l1-.51a1.51,1.51,0,0,0,.53-2.05,1.54,1.54,0,0,0-2-.54l-1,.51A1.5,1.5,0,0,0,68,31.63a1.54,1.54,0,0,0,2,.54Z"/><path class="cls-3" d="M52.29,49.36a1.5,1.5,0,0,0,0-3,1.5,1.5,0,0,0,0,3Z"/></g></g></svg>