<svg xmlns="http://www.w3.org/2000/svg" viewBox="0 0 93 163.19"><defs><style>.cls-1,.cls-2{fill:#ffc3c7;}.cls-1{stroke:#ffc3c7;stroke-miterlimit:10;}</style></defs><title>Asset 46</title><g id="Layer_2" data-name="Layer 2"><g id="Layer_5" data-name="Layer 5"><circle class="cls-1" cx="28.5" cy="28.5" r="28"/><circle class="cls-1" cx="64.5" cy="28.5" r="28"/><path class="cls-1" d="M77.48,49C59,45.24,38.25,46.27,16.16,50.31a3.5,3.5,0,0,0-2.69,4.54L48.63,161.5,80.15,53.44A3.51,3.51,0,0,0,77.48,49Z"/><path class="cls-2" d="M12.25,13.5"/><path class="cls-2" d="M12.25,15a1.5,1.5,0,0,0,0-3,1.5,1.5,0,0,0,0,3Z"/><path class="cls-2" d="M20.25,8.25"/><path class="cls-2" d="M20.25,9.75a1.5,1.5,0,0,0,0-3,1.5,1.5,0,0,0,0,3Z"/><path class="cls-2" d="M30.25,6.75"/><path class="cls-2" d="M30.25,8.25a1.5,1.5,0,0,0,0-3,1.5,1.5,0,0,0,0,3Z"/><path class="cls-2" d="M25,19"/><path class="cls-2" d="M25,20.5a1.5,1.5,0,0,0,0-3,1.5,1.5,0,0,0,0,3Z"/><path class="cls-2" d="M21.75,16.25"/><path class="cls-2" d="M21.75,17.75a1.5,1.5,0,0,0,0-3,1.5,1.5,0,0,0,0,3Z"/><path class="cls-2" d="M10.25,28"/><path class="cls-2" d="M10.25,29.5a1.5,1.5,0,0,0,0-3,1.5,1.5,0,0,0,0,3Z"/><path class="cls-2" d="M12.25,38.5"/><path class="cls-2" d="M12.25,40a1.5,1.5,0,0,0,0-3,1.5,1.5,0,0,0,0,3Z"/><path class="cls-2" d="M23.5,39l-.25-.25"/><path class="cls-2" d="M24.56,37.94l-.25-.25a1.53,1.53,0,0,0-2.12,0,1.51,1.51,0,0,0,0,2.12l.25.25a1.53,1.53,0,0,0,2.12,0,1.51,1.51,0,0,0,0-2.12Z"/><path class="cls-2" d="M19.75,30.5"/><path class="cls-2" d="M19.75,32a1.5,1.5,0,0,0,0-3,1.5,1.5,0,0,0,0,3Z"/><path class="cls-2" d="M31.75,25.75"/><path class="cls-2" d="M31.75,27.25a1.5,1.5,0,0,0,0-3,1.5,1.5,0,0,0,0,3Z"/><path class="cls-2" d="M34.25,15.75"/><path class="cls-2" d="M34.25,17.25a1.5,1.5,0,0,0,0-3,1.5,1.5,0,0,0,0,3Z"/><path class="cls-2" d="M38.75,11"/><path class="cls-2" d="M38.75,12.5a1.5,1.5,0,0,0,0-3,1.5,1.5,0,0,0,0,3Z"/><path class="cls-2" d="M62.25,6.5"/><path class="cls-2" d="M62.25,8a1.5,1.5,0,0,0,0-3,1.5,1.5,0,0,0,0,3Z"/><path class="cls-2" d="M72,8.25"/><path class="cls-2" d="M72,9.75a1.5,1.5,0,0,0,0-3,1.5,1.5,0,0,0,0,3Z"/><path class="cls-2" d="M71.5,13.5"/><path class="cls-2" d="M71.5,15a1.5,1.5,0,0,0,0-3,1.5,1.5,0,0,0,0,3Z"/><path class="cls-2" d="M56.75,9.75"/><path class="cls-2" d="M56.75,11.25a1.5,1.5,0,0,0,0-3,1.5,1.5,0,0,0,0,3Z"/><path class="cls-2" d="M51,20.75"/><path class="cls-2" d="M51,22.25a1.5,1.5,0,0,0,0-3,1.5,1.5,0,0,0,0,3Z"/><path class="cls-2" d="M59.25,17.5"/><path class="cls-2" d="M59.25,19a1.5,1.5,0,0,0,0-3,1.5,1.5,0,0,0,0,3Z"/><path class="cls-2" d="M63.25,14.25"/><path class="cls-2" d="M63.25,15.75a1.5,1.5,0,0,0,0-3,1.5,1.5,0,0,0,0,3Z"/><path class="cls-2" d="M72.75,28"/><path class="cls-2" d="M72.75,29.5a1.5,1.5,0,0,0,0-3,1.5,1.5,0,0,0,0,3Z"/><path class="cls-2" d="M80,16.75"/><path class="cls-2" d="M80,18.25a1.5,1.5,0,0,0,0-3,1.5,1.5,0,0,0,0,3Z"/><path class="cls-2" d="M79.5,11.5"/><path class="cls-2" d="M79.5,13a1.5,1.5,0,0,0,0-3,1.5,1.5,0,0,0,0,3Z"/><path class="cls-2" d="M86.5,22"/><path class="cls-2" d="M86.5,23.5a1.5,1.5,0,0,0,0-3,1.5,1.5,0,0,0,0,3Z"/><path class="cls-2" d="M85,37.5"/><path class="cls-2" d="M85,39a1.5,1.5,0,0,0,0-3,1.5,1.5,0,0,0,0,3Z"/><path class="cls-2" d="M79.5,26.5"/><path class="cls-2" d="M79.5,28a1.5,1.5,0,0,0,0-3,1.5,1.5,0,0,0,0,3Z"/><path class="cls-2" d="M77.75,39"/><path class="cls-2" d="M77.75,40.5a1.5,1.5,0,0,0,0-3,1.5,1.5,0,0,0,0,3Z"/><path class="cls-2" d="M67.5,44"/><path class="cls-2" d="M67.5,45.5a1.5,1.5,0,0,0,0-3,1.5,1.5,0,0,0,0,3Z"/><path class="cls-2" d="M65.5,34.25"/><path class="cls-2" d="M65.5,35.75a1.5,1.5,0,0,0,0-3,1.5,1.5,0,0,0,0,3Z"/></g></g></svg>