<svg xmlns="http://www.w3.org/2000/svg" viewBox="0 0 114.82 102.95"><defs><style>.cls-1{fill:#ffc3c7;stroke:#ffc3c7;stroke-miterlimit:10;}</style></defs><title>Asset 12</title><g id="Layer_2" data-name="Layer 2"><g id="Layer_5" data-name="Layer 5"><rect class="cls-1" x="31" y="0.72" width="52.83" height="101.5" transform="translate(-17.71 68.89) rotate(-54.93)"/><rect class="cls-1" x="14.88" y="32.73" width="12.07" height="12.07" transform="translate(-22.83 33.61) rotate(-54.93)"/><rect class="cls-1" x="27.02" y="15.43" width="12.07" height="12.07" transform="translate(-3.51 36.19) rotate(-54.93)"/><rect class="cls-1" x="30.01" y="43.35" width="12.07" height="12.07" transform="translate(-25.09 50.52) rotate(-54.93)"/><rect class="cls-1" x="42.16" y="26.06" width="12.07" height="12.07" transform="translate(-5.77 53.1) rotate(-54.93)"/><rect class="cls-1" x="45.15" y="53.97" width="12.07" height="12.07" transform="translate(-27.34 67.42) rotate(-54.93)"/><rect class="cls-1" x="57.29" y="36.68" width="12.07" height="12.07" transform="translate(-8.02 70) rotate(-54.93)"/><rect class="cls-1" x="60.28" y="64.6" width="12.07" height="12.07" transform="translate(-29.6 84.33) rotate(-54.93)"/><rect class="cls-1" x="72.42" y="47.3" width="12.07" height="12.07" transform="translate(-10.28 86.91) rotate(-54.93)"/><rect class="cls-1" x="75.41" y="75.22" width="12.07" height="12.07" transform="translate(-31.86 101.23) rotate(-54.93)"/><rect class="cls-1" x="87.55" y="57.93" width="12.07" height="12.07" transform="translate(-12.54 103.81) rotate(-54.93)"/></g></g></svg>