<svg xmlns="http://www.w3.org/2000/svg" viewBox="0 0 65.68 108.75"><defs><style>.cls-1{fill:#f9f9f9;}.cls-2{fill:#df1f26;stroke:#f9f9f9;stroke-miterlimit:10;stroke-width:0.4px;}.cls-3{fill:#056a37;}</style></defs><title>Asset 9</title><g id="Layer_2" data-name="Layer 2"><g id="Layer_5" data-name="Layer 5"><path class="cls-1" d="M36,108.75a.73.73,0,0,0,0-1.46.73.73,0,0,0,0,1.46Z"/><path class="cls-2" d="M32.36,9.19c65.92-1.6,14.9,73.34,4.23,73.1C26.94,79.18-37.6,10.89,32.36,9.19Z"/><path class="cls-1" d="M17.55,20.77a.6.6,0,0,0,0-1.19.6.6,0,0,0,0,1.19Z"/><path class="cls-1" d="M12.52,28.73a.59.59,0,0,0,0-1.18.59.59,0,0,0,0,1.18Z"/><path class="cls-1" d="M12.35,36.48a.59.59,0,0,0,0-1.18.59.59,0,0,0,0,1.18Z"/><path class="cls-1" d="M24,35.77a.6.6,0,0,0,0-1.19.6.6,0,0,0,0,1.19Z"/><path class="cls-1" d="M20.24,31.16a.59.59,0,0,0,0-1.18.59.59,0,0,0,0,1.18Z"/><path class="cls-1" d="M29.63,23.62a.6.6,0,0,0,0-1.19.6.6,0,0,0,0,1.19Z"/><path class="cls-1" d="M30.18,20.72a.6.6,0,0,0,0-1.19.6.6,0,0,0,0,1.19Z"/><path class="cls-1" d="M35.56,18.9a.6.6,0,0,0,0-1.19.6.6,0,0,0,0,1.19Z"/><path class="cls-1" d="M49.55,23.08a.59.59,0,0,0,0-1.18.59.59,0,0,0,0,1.18Z"/><path class="cls-1" d="M52.37,27.35a.6.6,0,0,0,0-1.19.6.6,0,0,0,0,1.19Z"/><path class="cls-1" d="M32.93,28.21a.6.6,0,0,0,0-1.19.6.6,0,0,0,0,1.19Z"/><path class="cls-1" d="M37.4,23.46a.59.59,0,0,0,0-1.18.59.59,0,0,0,0,1.18Z"/><path class="cls-1" d="M42,33.26a.6.6,0,0,0,0-1.19.6.6,0,0,0,0,1.19Z"/><path class="cls-1" d="M36.07,39.91a.6.6,0,0,0,0-1.19.6.6,0,0,0,0,1.19Z"/><path class="cls-1" d="M27.76,42.31a.59.59,0,0,0,0-1.18.59.59,0,0,0,0,1.18Z"/><path class="cls-1" d="M25.62,51.31a.6.6,0,0,0,0-1.19.6.6,0,0,0,0,1.19Z"/><path class="cls-1" d="M15.49,48.51a.6.6,0,0,0,0-1.19.6.6,0,0,0,0,1.19Z"/><path class="cls-1" d="M24.42,62a.6.6,0,0,0,0-1.19.6.6,0,0,0,0,1.19Z"/><path class="cls-1" d="M38.89,66.46a.6.6,0,0,0,0-1.19.6.6,0,0,0,0,1.19Z"/><path class="cls-1" d="M38.64,55.8a.6.6,0,0,0,0-1.19.6.6,0,0,0,0,1.19Z"/><path class="cls-1" d="M43.21,46.53a.6.6,0,0,0,0-1.19.6.6,0,0,0,0,1.19Z"/><path class="cls-1" d="M49.62,42.15a.6.6,0,0,0,0-1.19.6.6,0,0,0,0,1.19Z"/><path class="cls-1" d="M59.39,39.13a.6.6,0,0,0,0-1.19.6.6,0,0,0,0,1.19Z"/><path class="cls-1" d="M45.37,58.85a.6.6,0,0,0,0-1.19.6.6,0,0,0,0,1.19Z"/><path class="cls-1" d="M49.91,50.87a.59.59,0,0,0,0-1.18.59.59,0,0,0,0,1.18Z"/><path class="cls-1" d="M31.42,52.73a.6.6,0,0,0,0-1.19.6.6,0,0,0,0,1.19Z"/><path class="cls-1" d="M26.77,65.55a.6.6,0,0,0,0-1.19.6.6,0,0,0,0,1.19Z"/><path class="cls-1" d="M48.58,67.32a.6.6,0,0,0,0-1.19.6.6,0,0,0,0,1.19Z"/><path class="cls-1" d="M27.9,58.15a.6.6,0,0,0,0-1.19.6.6,0,0,0,0,1.19Z"/><path class="cls-1" d="M13.88,55.25a.59.59,0,0,0,0-1.18.59.59,0,0,0,0,1.18Z"/><path class="cls-3" d="M33.84,10.87A25.14,25.14,0,0,0,28.34.33c-.82-1-2.22.43-1.4,1.4a22.9,22.9,0,0,1,5,9.67c.29,1.24,2.2.71,1.91-.53Z"/><path class="cls-3" d="M34.42,11.18C33,7,38,4.26,41.27,3.27L40.16,1.81C39.31,3.33,36.83,3.9,35.51,5A7.94,7.94,0,0,0,32.8,9.1c-.21.77.72,1.65,1.45,1.12l1-.77c1-.74,0-2.46-1-1.71l-1,.77,1.46,1.12a7.06,7.06,0,0,1,3.87-4.28c1.25-.67,2.56-1.24,3.28-2.54a1,1,0,0,0-1.11-1.45c-4.33,1.3-10,5.06-8.23,10.35.4,1.2,2.31.68,1.9-.53Z"/><path class="cls-3" d="M19.57,8.28c5-.71,10.68.22,14.55,3.72l1-1.66c-5.46-2-10.89-3.7-16.77-3.38-1.27.06-1.28,2,0,2,5.7-.31,11,1.39,16.25,3.31a1,1,0,0,0,1-1.65c-4.44-4-10.71-5-16.48-4.23-1.26.18-.72,2.09.53,1.91Z"/><path class="cls-3" d="M34.66,11C37.83,8,42,7.24,46.19,7.41v-2c-4.89.54-8.76,3.1-13.42,4.4C27.94,11.17,23.54,10.92,19.3,14c-.85.62-.39,2.17.76,1.81L32.49,12c1.21-.38.69-2.29-.53-1.91L19.53,13.9l.77,1.81c4-2.93,8.43-2.7,13-4s8.21-3.81,12.89-4.32a1,1,0,0,0,0-2c-4.76-.19-9.37.83-12.93,4.13-.93.87.47,2.27,1.4,1.4Z"/></g></g></svg>