<svg xmlns="http://www.w3.org/2000/svg" viewBox="0 0 149.11 151.75"><defs><style>.cls-1{fill:#f7da9f;}.cls-2{fill:#ff9fd4;}.cls-3{fill:#fff;}.cls-4{fill:#9bdbf5;}.cls-5{fill:#ed2690;}</style></defs><title>Asset 41</title><g id="Layer_2" data-name="Layer 2"><g id="Layer_5" data-name="Layer 5"><path class="cls-1" d="M149.07,81.8a14.56,14.56,0,0,0-1.13-4.23A31.48,31.48,0,0,1,145.61,71c-.48-3,.38-6.11.75-9.17C150.57,27.32,105.65,2.12,76.42.14c-23.53-1.6-45.6,11.18-64.18,25.7-2.45,1.91-5,4.06-5.83,7.05-1.19,4.34,1.62,8.73,2,13.22.6,8.1-6.82,15-6.83,23.11,0,3.72,1.58,7.43.84,11.08C2,82.2,1,83.92.47,85.78c-1.7,6,1.54,12.13,4.68,17.5,7,12,14.14,24.15,24.53,33.31a57.19,57.19,0,0,0,24,12.81c5.83,1.43,11.87,1.81,17.86,2.19,3.43.21,7,.41,10.2-.78,3.44-1.26,6.14-4,9.42-5.62,9.83-4.93,23.5.21,31.58-7.25a24.76,24.76,0,0,0,4.31-5.87,284.92,284.92,0,0,0,20.38-42.45C148.35,87.11,149.29,84.48,149.07,81.8Zm-49.8,9.73c-1.54,1.93-3.35,3.75-4.18,6.07-.93,2.62-.79,6-3.18,7.45-2.17,1.27-5.08,0-7.37,1-1.14.5-2,1.53-3.16,2-1.49.54-3.14,0-4.63-.59C70.47,105,54,102.19,50.2,96.25c-1.28-2-.86-4.4-1.84-6.43-.63-1.31-1.94-2.07-2.76-3.33-1.94-3-3.56-6.89-1.45-10.24a17.69,17.69,0,0,0,2.1-3.11,9.58,9.58,0,0,0,.06-4.2c-.66-7.19,3.62-14.15,9.43-18.43,9-6.63,16.91-6.14,26.86-7.16,4.58-.47,7.67,4.17,10.64,7a10.55,10.55,0,0,1,2.35,2.82,18.76,18.76,0,0,1,1,3.3A11.35,11.35,0,0,0,101,62.52c2.13,1.46,4.7,9.52,4.76,12.15v.56C105.7,80.93,102.7,87.2,99.27,91.53Z"/><path class="cls-2" d="M149.07,81.87A14.33,14.33,0,0,0,148,77.72a31,31,0,0,1-2.29-6.45c-.78-5,1.26-7.88-1.34-12.33-2.31-4-7-6.06-9.54-9.9-3.13-4.72-2.73-11-5.22-16.09-2.83-5.78-8.88-9.15-14.57-12.16a40.74,40.74,0,0,0-7.11-3.18c-2-.6-4.13-.88-6.11-1.6C93.76,13.13,91,3.78,82.7,2.63c-9-1.26-18,3.4-27.15,1.19a24.72,24.72,0,0,0-3.64-.88,12.24,12.24,0,0,0-4.39.7L34.68,7.34A6.64,6.64,0,0,0,32.2,8.45,7.63,7.63,0,0,0,30.33,12C26.4,22.89,11.89,23.59,9.05,33.87c-1.17,4.26,1.59,8.56,1.92,13,.59,7.94-6.69,14.71-6.7,22.68,0,3.65,1.55,7.29.82,10.87-.38,1.87-1.35,3.55-1.87,5.38-2.54,8.92,6.42,14.89,4.51,23.29-1.44,6.32-2.5,14,2.25,18.4,3.36,3.12,8.38,3.33,12.83,4.47a28.82,28.82,0,0,1,15.64,10.31c1.5,1.95,3,4.24,5.33,4.89,2.59.71,5.19-.83,7.69-1.81,7.57-2.95,15.6-.69,22.79,2.21,9,3.63,9.73.66,17.93-3.45,9.65-4.83,23.06.2,31-7.11a24.32,24.32,0,0,0,4.23-5.76,280.84,280.84,0,0,0,20-41.67C148.36,87.08,149.28,84.5,149.07,81.87Zm-43.58,12.9c-6.56,9.56-16.19,22.2-27,18.12-7.35-2.78-26.57-6.07-31.06-13-1.5-2.32-1-5.15-2.15-7.52-.74-1.54-2.28-2.43-3.23-3.9C36,79.11,42.52,70,42,60.08c-.1-1.87-.6-3.71-.54-5.57.23-7.67,6.63-7.62,11.9-9.22,5.07-1.55,9.67-4.46,14.91-5.76C78.1,37.08,88.65,39.1,93,49.21a19.68,19.68,0,0,0,1.67,3.64,10.54,10.54,0,0,0,3.7,2.94c3.17,1.75,11.17,2.92,11.93,7.41a4.64,4.64,0,0,1-.24,1.8c-2,8.49,5.71,15.23-.27,23.48C108.59,90.18,107.14,92.38,105.49,94.77Z"/><path class="cls-3" d="M43.3,34.22l-3.52,2.92a1.17,1.17,0,0,0,0,1.65,1.2,1.2,0,0,0,1.66,0L45,35.87a1.17,1.17,0,0,0,0-1.65,1.19,1.19,0,0,0-1.65,0Z"/><path class="cls-3" d="M18.42,63.76a3.75,3.75,0,0,0,1.74,3.34,1.17,1.17,0,0,0,1.6-.42,1.19,1.19,0,0,0-.42-1.6,1.39,1.39,0,0,1-.58-1.32,1.17,1.17,0,0,0-2.34,0Z"/><path class="cls-3" d="M22,105.59a3.19,3.19,0,0,0,2,3.74,1.17,1.17,0,0,0,1.44-.81,1.2,1.2,0,0,0-.82-1.44c.05,0-.12-.11-.15-.14a.84.84,0,0,1-.17-.26.65.65,0,0,1,0-.47c.34-1.47-1.92-2.09-2.26-.62Z"/><path class="cls-3" d="M45,131.89a2.67,2.67,0,0,1,2.1-.82c1.51.07,1.5-2.27,0-2.34a5,5,0,0,0-3.75,1.5c-1.06,1.08.59,2.74,1.65,1.66Z"/><path class="cls-3" d="M76.67,131.7A55.57,55.57,0,0,0,86,129.25c1.41-.51.8-2.77-.62-2.26a54.87,54.87,0,0,1-9.34,2.45c-1.48.25-.85,2.51.62,2.26Z"/><path class="cls-3" d="M117.38,99.13l-.6-4.09a1.18,1.18,0,0,0-1.44-.82,1.21,1.21,0,0,0-.82,1.44l.6,4.1a1.17,1.17,0,0,0,1.44.81,1.2,1.2,0,0,0,.82-1.44Z"/><path class="cls-3" d="M84,27.32a2.44,2.44,0,0,1,2.64.43c1.12,1,2.78-.64,1.66-1.66a4.92,4.92,0,0,0-5.48-.8c-1.37.64-.18,2.66,1.18,2Z"/><path class="cls-3" d="M114.54,46.21l5.35,8.14c.82,1.25,2.85.08,2-1.18L116.56,45c-.82-1.25-2.85-.08-2,1.18Z"/><path class="cls-3" d="M133.79,95.65l-1.58,4.74c-.48,1.44,1.78,2,2.26.63l1.58-4.74c.48-1.44-1.78-2-2.26-.63Z"/><path class="cls-4" d="M26.23,53.2,28,56.14A1.17,1.17,0,0,0,30,55L28.25,52a1.17,1.17,0,0,0-2,1.18Z"/><path class="cls-4" d="M33.17,75.44,32,77.2a1.17,1.17,0,0,0,2,1.18l1.17-1.76a1.18,1.18,0,0,0-.42-1.6,1.19,1.19,0,0,0-1.6.42Z"/><path class="cls-4" d="M13.72,92l-2.34,1.76a1.2,1.2,0,0,0-.42,1.6,1.18,1.18,0,0,0,1.6.42L14.9,94a1.22,1.22,0,0,0,.42-1.6,1.18,1.18,0,0,0-1.6-.42Z"/><path class="cls-4" d="M15.62,121.39l.57,1.76a1.17,1.17,0,0,0,2.26-.62l-.57-1.76a1.2,1.2,0,0,0-1.44-.82,1.19,1.19,0,0,0-.82,1.44Z"/><path class="cls-4" d="M105,119.94a1.17,1.17,0,0,0,0-2.34,1.17,1.17,0,0,0,0,2.34Z"/><path class="cls-4" d="M108.53,128.14h1.76a1.17,1.17,0,0,0,0-2.34h-1.76a1.17,1.17,0,0,0,0,2.34Z"/><path class="cls-4" d="M52.29,117.3a7.22,7.22,0,0,0-2-3.46c-1.1-1-2.75.62-1.66,1.65A4.87,4.87,0,0,1,50,117.92a1.17,1.17,0,0,0,2.26-.62Z"/><path class="cls-4" d="M59.62,19.06l7.09-2.74c1.39-.54.79-2.8-.62-2.26L59,16.81c-1.39.53-.78,2.8.63,2.25Z"/><path class="cls-4" d="M106,32.33l2.9,3c1,1.08,2.71-.57,1.65-1.65l-2.89-3c-1.06-1.08-2.71.58-1.66,1.66Z"/><path class="cls-4" d="M132.62,75.16a6.54,6.54,0,0,1-1.52,3c-1,1.11.63,2.77,1.65,1.65a8.91,8.91,0,0,0,2.13-4c.34-1.47-1.92-2.1-2.26-.63Z"/><path class="cls-4" d="M28.37,28.49l3.51-1.75c1.35-.67.16-2.69-1.18-2l-3.52,1.75c-1.34.68-.16,2.7,1.19,2Z"/><path class="cls-5" d="M118.55,116.71a3.28,3.28,0,0,1-1.25,2.21,1.21,1.21,0,0,0-.42,1.6,1.17,1.17,0,0,0,1.6.42,5.49,5.49,0,0,0,2.32-3.61,1.21,1.21,0,0,0-.81-1.44,1.18,1.18,0,0,0-1.44.82Z"/><path class="cls-5" d="M65.22,119.2l4.68,2.34c1.34.67,2.53-1.35,1.18-2l-4.68-2.34c-1.34-.67-2.53,1.35-1.18,2Z"/><path class="cls-5" d="M61.13,133.4a1.17,1.17,0,0,0,0-2.34,1.17,1.17,0,0,0,0,2.34Z"/><path class="cls-5" d="M24.39,36.82a4.53,4.53,0,0,1-2.77,2.44c-1.44.45-.82,2.71.62,2.26A6.85,6.85,0,0,0,26.41,38c.66-1.35-1.35-2.53-2-1.18Z"/><path class="cls-5" d="M99.7,46.73l3.54,1.7c1.35.64,2.54-1.37,1.18-2l-3.54-1.7c-1.35-.64-2.54,1.37-1.18,2Z"/></g></g></svg>