<svg xmlns="http://www.w3.org/2000/svg" viewBox="0 0 152.02 154.9"><defs><style>.cls-1{fill:#ffc3c7;}</style></defs><title>Asset 42</title><g id="Layer_2" data-name="Layer 2"><g id="Layer_5" data-name="Layer 5"><path class="cls-1" d="M150.52,83.28a14.89,14.89,0,0,0-1.13-4.23,30.81,30.81,0,0,1-2.33-6.57c-.48-3,.37-6.11.74-9.16C152,28.79,107.1,3.6,77.86,1.61,54.33,0,32.26,12.8,13.68,27.32c-2.44,1.91-5,4.06-5.82,7-1.2,4.34,1.61,8.73,2,13.22.6,8.09-6.82,15-6.82,23.1,0,3.73,1.57,7.44.83,11.09-.39,1.89-1.38,3.61-1.91,5.48-1.7,6,1.55,12.13,4.68,17.49,7,12,14.14,24.16,24.53,33.32a57.3,57.3,0,0,0,24,12.81c5.83,1.43,11.87,1.81,17.86,2.19,3.43.21,7,.41,10.2-.78,3.44-1.27,6.15-4,9.43-5.62,9.82-4.93,23.49.2,31.57-7.25a24.76,24.76,0,0,0,4.31-5.87A285.39,285.39,0,0,0,148.83,91.1C149.79,88.59,150.74,86,150.52,83.28ZM100.71,93c-1.54,1.93-3.34,3.74-4.17,6.07-.94,2.62-.8,6-3.19,7.45-2.17,1.27-5.08,0-7.37,1-1.14.5-2,1.53-3.16,2-1.49.55-3.14,0-4.62-.58-6.29-2.38-22.72-5.2-26.56-11.14-1.28-2-.86-4.4-1.84-6.43C49.17,90,47.86,89.22,47,88c-1.94-3-3.56-6.9-1.44-10.24.66-1.06,1.66-1.93,2.09-3.11a9.63,9.63,0,0,0,.06-4.21c-.66-7.18,3.63-14.14,9.43-18.42,9-6.63,16.92-6.14,26.86-7.16,4.58-.48,7.67,4.17,10.64,7A10.78,10.78,0,0,1,97,54.62a19.34,19.34,0,0,1,1,3.3A11.37,11.37,0,0,0,102.45,64c2.12,1.46,4.69,9.52,4.75,12.15,0,.19,0,.37,0,.56C107.14,82.4,104.15,88.68,100.71,93Z"/><path class="cls-1" d="M152,82.88c-.77-4.95-3.76-8.86-3.46-14.06.26-4.32,1.3-8.29,1-12.67a41.87,41.87,0,0,0-4.72-16.23c-6.14-11.76-16.9-20.77-28.24-27.29-11-6.32-23.39-10.89-36-12.28C63-1.57,46,4.59,31.12,13.42,24,17.67,16.24,22.48,10.21,28.27,8,30.38,6.27,32.86,6.08,36,5.76,41.32,9.15,46,8,51.38,6.41,59,.71,64.84,1.67,73.08c.25,2.11.87,4.22.82,6.34C2.43,82,1.44,83.83.7,86.17a17.24,17.24,0,0,0,.57,11.27c2.93,8.1,8.4,15.88,13.14,23s10.21,14.14,16.88,19.72a59.12,59.12,0,0,0,21.83,11.74c8.12,2.27,18.33,3.64,26.71,2.65,4.54-.54,7.7-3.07,11.46-5.42,4.57-2.86,9.61-3.3,14.88-3.54,7.43-.34,15.36-.56,20.51-6.74,6.37-7.64,10.69-18.08,14.91-27q3.18-6.74,6-13.63c2-4.78,4.42-9.7,4.42-15a1.5,1.5,0,0,0-3,0c0,4.38-2,8.5-3.62,12.48q-2.82,7-6,13.77c-3.72,7.93-7.76,15.74-12.24,23.26-4.71,7.93-10.83,9.37-19.56,9.76-6.25.28-12.37.6-17.82,4-3.83,2.4-6.91,4.87-11.65,5.14A85.39,85.39,0,0,1,64.85,151a57.17,57.17,0,0,1-25.23-8.37c-14.2-9-23.07-23.69-31.32-37.87C6,100.76,3.49,96.61,3.08,92c-.38-4.34,2.2-7.58,2.43-11.76S4,72.34,4.72,68.28s2.85-7.43,4.41-11a24.5,24.5,0,0,0,2.08-6.84c.45-3.78-1-7-1.71-10.7-1.34-7,3.44-10,8.29-13.66,3.41-2.56,6.9-5,10.49-7.33C42.3,9.68,58.35,2.57,75.34,3c12.19.31,24.37,4.3,35.16,9.78,12.19,6.2,23.95,15.05,30.82,27.11a38.25,38.25,0,0,1,5.25,19.21c0,4.17-1.4,8.31-1.09,12.47s2.93,7.89,3.59,12.11C149.36,85.58,152.26,84.77,152,82.88Z"/><path class="cls-1" d="M99.65,92c-2,2.47-4,4.77-4.91,7.89-.87,3-.33,4.92-4.26,5.78-1.66.37-3.22-.22-4.9.43-2.25.86-2.44,2.29-5.46,1.89a27.1,27.1,0,0,1-4-1.33c-2.9-.9-5.85-1.64-8.76-2.5a56,56,0,0,1-9.88-3.64,13.35,13.35,0,0,1-3.77-2.53c-1.58-1.75-1.39-3.7-2.06-5.78-1.54-4.82-7.74-7.57-4.8-13.68,1.45-3,2.66-3.79,2.43-7.35-.66-10.72,7.24-19,17-22.27,4.17-1.39,8.55-1.74,12.89-2.11,2.19-.18,4.85-.82,7-.2s4,2.84,5.59,4.47c1.78,1.82,3.28,3.15,4.35,5.62.7,1.64.87,3.27,1.84,4.82,1.9,3.05,4.55,4.48,5.94,8,3.26,8.28.71,15.85-4.52,22.8-1.17,1.54,1.44,3,2.59,1.51,4.06-5.39,7.66-12.62,6.44-19.56a29.67,29.67,0,0,0-2.71-8.09c-1.82-3.63-5-5.4-6.47-9.43-1.78-5-6.89-11.4-12.25-13-3.31-1-7.5,0-10.86.36A46,46,0,0,0,64.1,46.48C57.25,49.1,51,54.13,48,60.92a23.24,23.24,0,0,0-1.74,9.49,11.4,11.4,0,0,1-2,6.56,8.47,8.47,0,0,0-1.13,5.25c.3,3.14,2,5.46,3.75,7.94,2.11,3,2,6.81,4.42,9.59,3.62,4.1,10.25,5.77,15.26,7.25,3.34,1,6.74,1.82,10.05,2.91,4.19,1.38,5.26,1.2,9-.48,3.26-1.45,7.33.14,9.86-2.86,1.14-1.36,1.37-3.07,1.83-4.72.91-3.28,2.24-5.14,4.41-7.78C103,92.59,100.88,90.45,99.65,92Z"/><path class="cls-1" d="M150.51,83.34a14.27,14.27,0,0,0-1.11-4.14,31.21,31.21,0,0,1-2.29-6.45c-.78-5,1.26-7.88-1.33-12.33-2.32-4-7-6.06-9.55-9.9-3.13-4.72-2.73-11-5.21-16.09-2.83-5.78-8.88-9.15-14.58-12.16a40,40,0,0,0-7.11-3.18c-2-.6-4.12-.89-6.11-1.6C95.2,14.61,92.44,5.26,84.14,4.1c-9-1.26-18,3.41-27.15,1.2a24.72,24.72,0,0,0-3.64-.88,12.24,12.24,0,0,0-4.39.7L36.12,8.82a6.64,6.64,0,0,0-2.48,1.11,7.72,7.72,0,0,0-1.87,3.5C27.84,24.37,13.34,25.07,10.49,35.34c-1.17,4.26,1.59,8.57,1.92,13C13,56.26,5.72,63,5.71,71c0,3.66,1.55,7.3.82,10.88-.38,1.86-1.35,3.55-1.87,5.38-2.54,8.92,6.42,14.89,4.51,23.28-1.44,6.33-2.5,14,2.25,18.4,3.36,3.13,8.39,3.34,12.83,4.48a28.92,28.92,0,0,1,15.65,10.3c1.49,1.95,3,4.25,5.32,4.9,2.59.71,5.19-.83,7.69-1.81,7.57-3,15.6-.69,22.8,2.2,9,3.64,9.72.67,17.92-3.44,9.65-4.84,23.07.2,31-7.11a24.41,24.41,0,0,0,4.22-5.77,280.26,280.26,0,0,0,20-41.66C149.8,88.56,150.73,86,150.51,83.34ZM106.93,96.25c-6.55,9.55-16.19,22.2-27,18.12-7.35-2.78-26.57-6.08-31.06-13-1.5-2.32-1-5.15-2.15-7.52-.74-1.54-2.27-2.43-3.23-3.9-6.07-9.34.43-18.49-.08-28.38-.1-1.86-.59-3.7-.54-5.57.23-7.66,6.63-7.61,11.9-9.22,5.07-1.54,9.68-4.45,14.91-5.76,9.83-2.44,20.37-.42,24.74,9.69a20.36,20.36,0,0,0,1.67,3.64,10.54,10.54,0,0,0,3.7,2.94C103,59,111,60.19,111.76,64.68a4.31,4.31,0,0,1-.24,1.8c-2,8.49,5.71,15.23-.27,23.48C110,91.65,108.58,93.86,106.93,96.25Z"/><path class="cls-1" d="M152,83c-.72-4.64-3.5-8.43-3.53-13.24,0-3.65.54-6.72-1.36-10-1.7-3-4.62-4.81-7-7.12-4.16-4-4.66-8.85-6.06-14.13-2-7.7-7.38-12.24-14.14-16a53.6,53.6,0,0,0-10.11-4.76c-5-1.53-8.83-2.45-12.71-6.3-5-4.95-8.81-8.91-16.26-9-4.13,0-8.18.93-12.24,1.5a36,36,0,0,1-8.1.45C58,4.12,55.74,3.05,53.35,2.92c-4-.23-8.32,1.77-12.13,2.87-3.22.93-7.71,1.32-9.71,4.39S29,16.36,26.13,19c-2.72,2.45-6,4.15-9,6.21-4.57,3.13-8.79,7.41-8.39,13.38.31,4.67,2.88,8.66,1.87,13.48-.87,4.18-3.33,7.84-4.84,11.79a19.42,19.42,0,0,0-1.4,9.4c.35,3.3,1.27,6.31.33,9.62-.56,2-1.57,3.74-1.86,5.79-1.1,7.82,6,13.79,4.88,21.51-.94,6.24-2.82,13.24,1.58,18.71,5.15,6.4,15.51,5.12,22.19,9.28,4.35,2.72,6.5,6.85,10.19,10.1,2.36,2.07,4.86,2.38,7.81,1.53,2.21-.64,4.19-1.78,6.45-2.31a24.58,24.58,0,0,1,10.76.2c4.7,1,9,3.62,13.74,4.32a11.89,11.89,0,0,0,7.65-1.59c4.82-2.55,8.83-5,14.41-5.55,7.59-.77,16.38.43,22.64-4.88,3.49-2.95,5.57-7.42,7.76-11.33Q137.2,121,141,113q3.5-7.26,6.56-14.72c2-4.77,4.45-9.7,4.44-15a1.5,1.5,0,0,0-3,0c0,4.38-2,8.47-3.63,12.45q-3.06,7.53-6.56,14.88a198.49,198.49,0,0,1-12.38,23.1c-5.28,8.1-13.93,7.33-22.49,7.94-6.85.49-11.38,3-17.36,6.08-7.17,3.67-15.59-2.92-23-3.7a25,25,0,0,0-11,1.26c-2.22.79-3.82,1.91-6.23,1.58-2.93-.4-4.08-2.79-5.84-4.89a31.53,31.53,0,0,0-18.06-10.59c-4.6-1-9.56-1.69-11.84-6.37-1.89-3.9-1-8.7-.23-12.77,1.27-6.52-1.2-10.59-3.46-16.53-1.48-3.91-1.15-7,.24-10.81s.94-6.82.43-10.73c-1.1-8.48,4.65-14.19,6.11-22.09C15,44.73,8.77,37.33,14.77,30.92c3.81-4.07,9.36-6.09,13.48-9.83a22.87,22.87,0,0,0,4.35-5.77c1.26-2.15,2.52-4.18,4.84-5.32s5.67-1.63,8.25-2.38a26.72,26.72,0,0,1,6.8-1.5c2.08,0,3.78.63,5.82,1a33.94,33.94,0,0,0,10.16-.19c4.35-.6,8.71-1.66,13.13-1.48,4.91.2,7.84,2.46,11.13,5.8a38.6,38.6,0,0,0,6.83,6.13c3.35,2.08,7.22,2.34,10.85,3.7,9,3.36,18.48,9.09,20.86,18.92.87,3.62,1.37,7.39,3.28,10.65s5,5.11,7.56,7.7c4.16,4.19,3,7.67,3.34,12.86.26,4.47,2.93,8.2,3.61,12.57C149.36,85.65,152.25,84.84,152,83Z"/><path class="cls-1" d="M105.64,95.49c-4.4,6.36-9.74,14.53-17.33,17.36-5.59,2.09-12.39-1.34-17.87-2.88-5.89-1.67-12.51-3.23-17.57-6.83-3.63-2.59-3-6.08-4.66-9.71s-4.76-5.59-5.53-9.91c-1.42-7.94,2.87-15.92,2-24-.54-5.37.3-8.43,5.63-10a92.94,92.94,0,0,0,9.35-2.94c7.66-3.22,15.62-6.79,24-3.94A15.71,15.71,0,0,1,93,51.23c1.27,2.69,2.12,4.79,4.68,6.52s5.62,2.35,8.4,3.59,3.83,2.41,3.85,5.44a39.8,39.8,0,0,0-.1,5.13c.43,3.44,2,6.72,2.17,10.18.29,5.21-3.61,9.35-6.38,13.4-1.09,1.6,1.5,3.11,2.59,1.52,2.5-3.66,6-7.44,6.68-12,.58-3.78-.78-7.32-1.6-11-.65-2.91-.34-5.19-.22-8.12a5.67,5.67,0,0,0-.3-3c-1.14-2.65-4.29-4-6.78-4.95A39.37,39.37,0,0,1,100.59,56c-2.62-1.51-3.88-4.1-5.15-6.71a18.31,18.31,0,0,0-8.21-8.47c-7.18-3.62-15.8-2.42-23,.49a117,117,0,0,1-13.62,5c-2.83.76-5.74,1.64-7.54,4.12C40.61,53.83,41.78,57.7,42,61.55c.24,5.45-1.65,10.61-2.28,16a19.68,19.68,0,0,0,1.67,11.62c1.22,2.35,3.62,4.05,4.49,6.57.81,2.32.57,4.59,2,6.73,3.51,5.19,11.33,7.28,16.95,9,4.09,1.27,8.25,2.27,12.33,3.55,3.69,1.17,6.88,2.22,10.77,1.15,9.08-2.5,15.28-11.83,20.33-19.13C109.33,95.42,106.73,93.92,105.64,95.49Z"/><path class="cls-1" d="M45.57,36.52l-3.52,2.92"/><path class="cls-1" d="M43.45,34.4l-3.52,2.92a3,3,0,0,0,0,4.24,3.07,3.07,0,0,0,4.24,0l3.52-2.91a3,3,0,0,0,0-4.25,3.09,3.09,0,0,0-4.24,0Z"/><path class="cls-1" d="M21,65.24a2.53,2.53,0,0,0,1.16,2.33"/><path class="cls-1" d="M18,65.24a5.6,5.6,0,0,0,2.65,4.92,3,3,0,0,0,4.1-1.07A3.08,3.08,0,0,0,23.71,65c-.36-.23.24.21.26.21s-.45-.53-.06,0,.1.11,0,0a3.36,3.36,0,0,1-.16-.33l.3.72a4.94,4.94,0,0,1-.15-.55l.11.79a2.72,2.72,0,0,1,0-.57,3,3,0,0,0-3-3,3.07,3.07,0,0,0-3,3Z"/><path class="cls-1" d="M24.53,107.38a2,2,0,0,0,1.18,2.3"/><path class="cls-1" d="M21.64,106.58a5,5,0,0,0,3.27,6,3,3,0,0,0,2.32-.31,3,3,0,0,0,1.07-4.1,3.57,3.57,0,0,0-1.79-1.38l-.13-.05.72.3s-.19-.14-.23-.13.65.52.25.16c-.2-.17.33.53.23.28,0-.1-.11-.2-.15-.3l.3.72a3.16,3.16,0,0,1-.13-.53l.11.8a2.67,2.67,0,0,1,0-.4l-.11.8a2.56,2.56,0,0,1,.05-.27,3,3,0,1,0-5.78-1.59Z"/><path class="cls-1" d="M45.6,132.54a3.68,3.68,0,0,1,2.92-1.16"/><path class="cls-1" d="M47.72,134.66a3.07,3.07,0,0,1,.26-.25c-.38.27-.44.32-.18.14l.32-.18c.22-.1.21-.1,0,0s-.26.11,0,0l.35-.08c-.5,0-.59.07-.26,0h.36a3,3,0,0,0,3-3,3.06,3.06,0,0,0-3-3,6.8,6.8,0,0,0-5.05,2,3,3,0,0,0,4.25,4.24Z"/><path class="cls-1" d="M77.8,132.05a51,51,0,0,0,9.34-2.46"/><path class="cls-1" d="M78.6,134.94a54.63,54.63,0,0,0,9.34-2.45c3.61-1.3,2-7.1-1.59-5.79A56,56,0,0,1,77,129.16a3,3,0,0,0-2.09,3.69,3.07,3.07,0,0,0,3.69,2.09Z"/><path class="cls-1" d="M117.69,100.92l-.6-4.09"/><path class="cls-1" d="M120.58,100.12,120,96c-.22-1.56-2.28-2.55-3.69-2.1a3.09,3.09,0,0,0-2.09,3.69l.6,4.1a3,3,0,0,0,3.69,2.09,3.09,3.09,0,0,0,2.09-3.69Z"/><path class="cls-1" d="M84.81,27.78a3.63,3.63,0,0,1,4.06.62"/><path class="cls-1" d="M86.32,30.37c-.36.15-.39.16-.07.06s.3-.07-.12,0h.23c.35,0,.31,0-.11-.05a4.9,4.9,0,0,1,.67.19c-.36-.16-.4-.15-.1,0-.29-.25-.32-.26-.07,0A3,3,0,0,0,91,26.28a6.81,6.81,0,0,0-7.7-1.09,3,3,0,0,0-1.08,4.11,3.08,3.08,0,0,0,4.1,1.07Z"/><path class="cls-1" d="M117,47.1l5.35,8.14"/><path class="cls-1" d="M114.4,48.61l5.35,8.14c2.12,3.21,7.31.21,5.18-3l-5.35-8.14c-2.11-3.21-7.31-.21-5.18,3Z"/><path class="cls-1" d="M136.36,97.44l-1.58,4.74"/><path class="cls-1" d="M133.47,96.64l-1.58,4.74a3,3,0,0,0,2.09,3.7,3.08,3.08,0,0,0,3.69-2.1l1.58-4.74a3,3,0,0,0-2.09-3.69,3.07,3.07,0,0,0-3.69,2.09Z"/><path class="cls-1" d="M28.68,54.08l1.72,3"/><path class="cls-1" d="M26.09,55.6l1.72,2.95a3,3,0,0,0,5.18-3l-1.72-3a3,3,0,1,0-5.18,3Z"/><path class="cls-1" d="M35.62,77.51l-1.17,1.76"/><path class="cls-1" d="M33,76l-1.17,1.75a3,3,0,0,0,1.08,4.11A3.07,3.07,0,0,0,37,80.78L38.21,79a3,3,0,0,0-1.07-4.1A3.07,3.07,0,0,0,33,76Z"/><path class="cls-1" d="M15.75,94.5l-2.34,1.76"/><path class="cls-1" d="M14.24,91.91l-2.35,1.75a3.29,3.29,0,0,0-1.37,1.8,3,3,0,0,0,2.09,3.69,2.91,2.91,0,0,0,2.31-.3l2.34-1.76a3.28,3.28,0,0,0,1.38-1.79,3,3,0,0,0-.3-2.31,3,3,0,0,0-1.79-1.38,2.91,2.91,0,0,0-2.31.3Z"/><path class="cls-1" d="M18.19,122.56l.57,1.76"/><path class="cls-1" d="M15.3,123.36l.57,1.76a3,3,0,0,0,5.78-1.6l-.57-1.76a3,3,0,0,0-5.78,1.6Z"/><path class="cls-1" d="M106.46,120.25"/><path class="cls-1" d="M106.46,123.25c3.86,0,3.87-6,0-6s-3.86,6,0,6Z"/><path class="cls-1" d="M110,128.44h1.75"/><path class="cls-1" d="M110,131.44h1.75a3,3,0,1,0,0-6H110a3,3,0,0,0,0,6Z"/><path class="cls-1" d="M52.6,119.08a5.75,5.75,0,0,0-1.73-2.94"/><path class="cls-1" d="M55.5,118.29A8.91,8.91,0,0,0,53,114a3,3,0,0,0-4.24,4.25,5.31,5.31,0,0,1,.53.55q-.39-.54-.12-.15l.21.33.18.34c.14.29.12.23-.07-.19,0,0,.22.67.23.73a3,3,0,1,0,5.79-1.59Z"/><path class="cls-1" d="M60.75,19.41l7.09-2.74"/><path class="cls-1" d="M61.54,22.31l7.1-2.75a3.08,3.08,0,0,0,2.09-3.69A3,3,0,0,0,67,13.78L60,16.52a3.09,3.09,0,0,0-2.1,3.69,3,3,0,0,0,3.69,2.1Z"/><path class="cls-1" d="M108.29,33l2.9,3"/><path class="cls-1" d="M106.17,35.1l2.89,3a3,3,0,0,0,4.25-4.25l-2.9-3a3,3,0,0,0-4.24,0,3.06,3.06,0,0,0,0,4.24Z"/><path class="cls-1" d="M135.19,77a7.33,7.33,0,0,1-1.83,3.48"/><path class="cls-1" d="M132.3,76.16c-.07.28-.16.56-.24.85s-.1.27.06-.1c-.06.13-.13.26-.2.39s-.3.51-.45.76-.17.24.07-.08l-.3.33a3,3,0,0,0,4.25,4.25,10.86,10.86,0,0,0,2.59-4.81,3,3,0,1,0-5.78-1.59Z"/><path class="cls-1" d="M29.22,29l3.51-1.75"/><path class="cls-1" d="M30.73,31.55l3.51-1.75a3,3,0,0,0,1.08-4.11,3.09,3.09,0,0,0-4.11-1.07L27.7,26.37a3,3,0,0,0-1.07,4.11,3.07,3.07,0,0,0,4.1,1.07Z"/><path class="cls-1" d="M121.12,118.5a4.29,4.29,0,0,1-1.79,2.91"/><path class="cls-1" d="M118.22,117.7a5.67,5.67,0,0,1-.15.69c-.1.4,0-.16.11-.23a2,2,0,0,0-.2.39l-.19.29c-.17.3.4-.41.14-.19s-.84.69-.11.17a3.24,3.24,0,0,0-1.38,1.79,3,3,0,0,0,.3,2.31c.81,1.26,2.75,2.06,4.11,1.08a7.37,7.37,0,0,0,3.16-4.7,3.33,3.33,0,0,0-.3-2.32,3.11,3.11,0,0,0-1.8-1.38c-1.43-.32-3.43.44-3.69,2.1Z"/><path class="cls-1" d="M67.25,119.67,71.93,122"/><path class="cls-1" d="M65.74,122.26l4.68,2.34a3,3,0,0,0,3-5.18l-4.68-2.34a3,3,0,1,0-3,5.18Z"/><path class="cls-1" d="M62.57,133.71"/><path class="cls-1" d="M62.57,136.71c3.86,0,3.87-6,0-6s-3.87,6,0,6Z"/><path class="cls-1" d="M26.85,38.89a5.63,5.63,0,0,1-3.48,3"/><path class="cls-1" d="M24.26,37.38c-.09.17-.34.82-.52.88.17-.06.37-.44,0-.06-.12.13-.24.24-.37.36-.31.31,0-.09.13-.08a3,3,0,0,0-.43.27c-.06,0-.38.27-.46.24l.34-.14-.39.13a3,3,0,1,0,1.6,5.78,8.7,8.7,0,0,0,5.27-4.36,3.07,3.07,0,0,0-1.08-4.1,3,3,0,0,0-4.1,1.08Z"/><path class="cls-1" d="M101.73,47.2l3.54,1.7"/><path class="cls-1" d="M100.22,49.79l3.54,1.7a3,3,0,0,0,3-5.19l-3.55-1.69a3,3,0,1,0-3,5.18Z"/></g></g></svg>