<svg xmlns="http://www.w3.org/2000/svg" viewBox="0 0 66.28 111.09"><defs><style>.cls-1,.cls-2{fill:#ffc3c7;}.cls-2{stroke:#ffc3c7;stroke-miterlimit:10;}</style></defs><title>Asset 10</title><g id="Layer_2" data-name="Layer 2"><g id="Layer_5" data-name="Layer 5"><path class="cls-1" d="M36.32,109.59"/><path class="cls-1" d="M36.32,111.09a1.5,1.5,0,0,0,0-3,1.5,1.5,0,0,0,0,3Z"/><path class="cls-2" d="M32.66,10.76c65.92-1.6,14.91,73.34,4.23,73.1C27.24,80.75-37.3,12.46,32.66,10.76Z"/><path class="cls-1" d="M17.85,21.75"/><path class="cls-1" d="M17.85,23.25a1.5,1.5,0,0,0,0-3,1.5,1.5,0,0,0,0,3Z"/><path class="cls-1" d="M12.82,29.71"/><path class="cls-1" d="M12.82,31.21a1.5,1.5,0,0,0,0-3,1.5,1.5,0,0,0,0,3Z"/><path class="cls-1" d="M12.65,37.46"/><path class="cls-1" d="M12.65,39a1.5,1.5,0,0,0,0-3,1.5,1.5,0,0,0,0,3Z"/><path class="cls-1" d="M24.32,36.75"/><path class="cls-1" d="M24.32,38.25a1.5,1.5,0,0,0,0-3,1.5,1.5,0,0,0,0,3Z"/><path class="cls-1" d="M20.54,32.14"/><path class="cls-1" d="M20.54,33.64a1.5,1.5,0,0,0,0-3,1.5,1.5,0,0,0,0,3Z"/><path class="cls-1" d="M29.93,24.59"/><path class="cls-1" d="M29.93,26.09a1.5,1.5,0,0,0,0-3,1.5,1.5,0,0,0,0,3Z"/><path class="cls-1" d="M30.48,21.7"/><path class="cls-1" d="M30.48,23.2a1.5,1.5,0,0,0,0-3,1.5,1.5,0,0,0,0,3Z"/><path class="cls-1" d="M35.86,19.88"/><path class="cls-1" d="M35.86,21.38a1.5,1.5,0,0,0,0-3,1.5,1.5,0,0,0,0,3Z"/><path class="cls-1" d="M49.85,24.06"/><path class="cls-1" d="M49.85,25.56a1.5,1.5,0,0,0,0-3,1.5,1.5,0,0,0,0,3Z"/><path class="cls-1" d="M52.67,28.32"/><path class="cls-1" d="M52.67,29.82a1.5,1.5,0,0,0,0-3,1.5,1.5,0,0,0,0,3Z"/><path class="cls-1" d="M33.23,29.19"/><path class="cls-1" d="M33.23,30.69a1.5,1.5,0,0,0,0-3,1.5,1.5,0,0,0,0,3Z"/><path class="cls-1" d="M37.7,24.44"/><path class="cls-1" d="M37.7,25.94a1.5,1.5,0,0,0,0-3,1.5,1.5,0,0,0,0,3Z"/><path class="cls-1" d="M42.34,34.23"/><path class="cls-1" d="M42.34,35.73a1.5,1.5,0,0,0,0-3,1.5,1.5,0,0,0,0,3Z"/><path class="cls-1" d="M36.37,40.89"/><path class="cls-1" d="M36.37,42.39a1.5,1.5,0,0,0,0-3,1.5,1.5,0,0,0,0,3Z"/><path class="cls-1" d="M28.06,43.29"/><path class="cls-1" d="M28.06,44.79a1.5,1.5,0,0,0,0-3,1.5,1.5,0,0,0,0,3Z"/><path class="cls-1" d="M25.92,52.29"/><path class="cls-1" d="M25.92,53.79a1.5,1.5,0,0,0,0-3,1.5,1.5,0,0,0,0,3Z"/><path class="cls-1" d="M15.79,49.48"/><path class="cls-1" d="M15.79,51a1.5,1.5,0,0,0,0-3,1.5,1.5,0,0,0,0,3Z"/><path class="cls-1" d="M24.72,62.92"/><path class="cls-1" d="M24.72,64.42a1.5,1.5,0,0,0,0-3,1.5,1.5,0,0,0,0,3Z"/><path class="cls-1" d="M39.19,67.44"/><path class="cls-1" d="M39.19,68.94a1.5,1.5,0,0,0,0-3,1.5,1.5,0,0,0,0,3Z"/><path class="cls-1" d="M38.94,56.77"/><path class="cls-1" d="M38.94,58.27a1.5,1.5,0,0,0,0-3,1.5,1.5,0,0,0,0,3Z"/><path class="cls-1" d="M43.51,47.5"/><path class="cls-1" d="M43.51,49a1.5,1.5,0,0,0,0-3,1.5,1.5,0,0,0,0,3Z"/><path class="cls-1" d="M49.92,43.12"/><path class="cls-1" d="M49.92,44.62a1.5,1.5,0,0,0,0-3,1.5,1.5,0,0,0,0,3Z"/><path class="cls-1" d="M59.7,40.11"/><path class="cls-1" d="M59.7,41.61a1.5,1.5,0,0,0,0-3,1.5,1.5,0,0,0,0,3Z"/><path class="cls-1" d="M45.67,59.83"/><path class="cls-1" d="M45.67,61.33a1.5,1.5,0,0,0,0-3,1.5,1.5,0,0,0,0,3Z"/><path class="cls-1" d="M50.21,51.85"/><path class="cls-1" d="M50.21,53.35a1.5,1.5,0,0,0,0-3,1.5,1.5,0,0,0,0,3Z"/><path class="cls-1" d="M31.72,53.71"/><path class="cls-1" d="M31.72,55.21a1.5,1.5,0,0,0,0-3,1.5,1.5,0,0,0,0,3Z"/><path class="cls-1" d="M27.07,66.53"/><path class="cls-1" d="M27.07,68a1.5,1.5,0,0,0,0-3,1.5,1.5,0,0,0,0,3Z"/><path class="cls-1" d="M48.88,68.3"/><path class="cls-1" d="M48.88,69.8a1.5,1.5,0,0,0,0-3,1.5,1.5,0,0,0,0,3Z"/><path class="cls-1" d="M28.2,59.12"/><path class="cls-1" d="M28.2,60.62a1.5,1.5,0,0,0,0-3,1.5,1.5,0,0,0,0,3Z"/><path class="cls-1" d="M14.18,56.23"/><path class="cls-1" d="M14.18,57.73a1.5,1.5,0,0,0,0-3,1.5,1.5,0,0,0,0,3Z"/><path class="cls-1" d="M33.19,12.7A23,23,0,0,0,27.94,2.6"/><path class="cls-1" d="M35.6,12A26.76,26.76,0,0,0,29.71.83c-2.08-2.46-5.6,1.09-3.54,3.54a21.3,21.3,0,0,1,4.61,9c.73,3.13,5.55,1.81,4.82-1.33Z"/><path class="cls-1" d="M33.77,13c-1.42-3.7,2.31-7.65,7.54-9.12C40.86,5,39.23,5.58,37.94,6.3a7.49,7.49,0,0,0-3.89,4.63l1.05-.76"/><path class="cls-1" d="M36.18,12.35C35.11,9.12,39.53,7,42,6.3L39.15,2.62c-.32.58-1.24.87-1.81,1.17a14.71,14.71,0,0,0-2.6,1.7,9.4,9.4,0,0,0-3.1,4.78c-.52,1.94,1.84,4.16,3.68,2.82l1-.76c2.58-1.88.09-6.22-2.52-4.32l-1.05.76,3.67,2.83c.93-3.46,5.37-3.51,7-6.45a2.53,2.53,0,0,0-2.82-3.68C35.54,3,29.32,7.55,31.36,13.68c1,3,5.84,1.74,4.82-1.33Z"/><path class="cls-1" d="M19.6,8.9c5.67-1,12.2.7,15.52,4C30,11,24.38,9,18.61,9.52"/><path class="cls-1" d="M20.27,11.31c4.45-.63,9.66.23,13.08,3.33l2.44-4.18C30.21,8.43,24.62,6.69,18.61,7c-3.2.17-3.22,5.17,0,5,5.56-.3,10.69,1.38,15.85,3.26,2.35.86,4.23-2.55,2.43-4.18C32,6.69,25.28,5.59,18.94,6.49c-3.17.45-1.82,5.27,1.33,4.82Z"/><path class="cls-1" d="M34.26,11.83C36.76,9.14,41.73,7.58,46.49,8c-5.51.29-9.42,3.69-14.7,4.73-1.52.29-3.11.39-4.64.66a15.2,15.2,0,0,0-7,3l12.43-3.86"/><path class="cls-1" d="M36,13.6c2.88-2.67,6.67-3.26,10.46-3.1v-5c-5.05.55-9,3.1-13.82,4.44s-9.48,1.17-13.83,4.33c-2.15,1.56-1,5.47,1.92,4.57L33.19,15c3.06-1,1.76-5.78-1.33-4.82L19.43,14l1.93,4.57C25.29,15.74,29.55,16,34,14.76c4.28-1.19,8-3.77,12.49-4.26,3.14-.35,3.28-4.87,0-5-5.17-.22-10.14,1-14,4.57-2.37,2.19,1.18,5.72,3.53,3.53Z"/></g></g></svg>