<svg xmlns="http://www.w3.org/2000/svg" viewBox="0 0 113.43 101.55"><defs><style>.cls-1,.cls-2{fill:#683302;}.cls-2{stroke:#3a1d04;stroke-miterlimit:10;stroke-width:4.15px;}</style></defs><title>Asset 11</title><g id="Layer_2" data-name="Layer 2"><g id="Layer_5" data-name="Layer 5"><rect class="cls-1" x="30.3" y="0.03" width="52.83" height="101.5" transform="translate(-17.43 68.02) rotate(-54.93)"/><rect class="cls-2" x="14.19" y="32.03" width="12.07" height="12.07" transform="translate(-22.55 32.75) rotate(-54.93)"/><rect class="cls-2" x="26.33" y="14.74" width="12.07" height="12.07" transform="translate(-3.24 35.33) rotate(-54.93)"/><rect class="cls-2" x="29.32" y="42.66" width="12.07" height="12.07" transform="translate(-24.81 49.65) rotate(-54.93)"/><rect class="cls-2" x="41.46" y="25.36" width="12.07" height="12.07" transform="translate(-5.49 52.23) rotate(-54.93)"/><rect class="cls-2" x="44.45" y="53.28" width="12.07" height="12.07" transform="translate(-27.07 66.56) rotate(-54.93)"/><rect class="cls-2" x="56.59" y="35.98" width="12.07" height="12.07" transform="translate(-7.75 69.14) rotate(-54.93)"/><rect class="cls-2" x="59.58" y="63.9" width="12.07" height="12.07" transform="translate(-29.33 83.46) rotate(-54.93)"/><rect class="cls-2" x="71.72" y="46.61" width="12.07" height="12.07" transform="translate(-10.01 86.04) rotate(-54.93)"/><rect class="cls-2" x="74.72" y="74.52" width="12.07" height="12.07" transform="translate(-31.58 100.37) rotate(-54.93)"/><rect class="cls-2" x="86.86" y="57.23" width="12.07" height="12.07" transform="translate(-12.26 102.94) rotate(-54.93)"/></g></g></svg>