<svg xmlns="http://www.w3.org/2000/svg" viewBox="0 0 70.79 121.29"><defs><style>.cls-1{fill:#ffc3c7;stroke:#ffc3c7;stroke-miterlimit:10;}</style></defs><title>Asset 39</title><g id="Layer_2" data-name="Layer 2"><g id="Layer_5" data-name="Layer 5"><path class="cls-1" d="M44.45.55c37,1.53,26.78,65.23,15.1,86.65s-5.36,33.59-15.1,33.59C-.82,120.79-26.13-2.37,44.45.55Z"/><path class="cls-1" d="M34.48,51.18A45.38,45.38,0,0,0,1.72,65c4.57,28.56,21.44,55.79,42.73,55.79,9.74,0,3.41-12.17,15.1-33.59,2.89-5.31,5.7-13.23,7.72-22.15A45.36,45.36,0,0,0,34.48,51.18Z"/><path class="cls-1" d="M35.45,91.83A33.7,33.7,0,0,0,14.09,99.5c7.78,12.65,18.37,21.29,30.36,21.29,8,0,5.19-8.15,10.31-22.84A33.63,33.63,0,0,0,35.45,91.83Z"/></g></g></svg>