<svg xmlns="http://www.w3.org/2000/svg" viewBox="0 0 69.79 120.29"><defs><style>.cls-1{fill:#fc7112;}.cls-2{fill:#ff9100;}.cls-3{fill:#fec00f;}</style></defs><title>Asset 40</title><g id="Layer_2" data-name="Layer 2"><g id="Layer_5" data-name="Layer 5"><path class="cls-1" d="M44,.05c37,1.53,26.78,65.23,15.1,86.65S53.69,120.29,44,120.29C-1.32,120.29-26.63-2.87,44,.05Z"/><path class="cls-2" d="M34,50.68A45.38,45.38,0,0,0,1.22,64.5C5.79,93.06,22.66,120.29,44,120.29c9.74,0,3.41-12.17,15.1-33.59,2.89-5.31,5.7-13.23,7.72-22.15A45.36,45.36,0,0,0,34,50.68Z"/><path class="cls-3" d="M35,91.33A33.7,33.7,0,0,0,13.59,99C21.37,111.65,32,120.29,44,120.29c8,0,5.19-8.15,10.31-22.84A33.63,33.63,0,0,0,35,91.33Z"/></g></g></svg>