<svg xmlns="http://www.w3.org/2000/svg" viewBox="0 0 76.1 114.85"><defs><style>.cls-1{fill:#ffc3c7;}</style></defs><title>Asset 37</title><g id="Layer_2" data-name="Layer 2"><g id="Layer_5" data-name="Layer 5"><path class="cls-1" d="M42.59,2.75c-1.37-2.69-8.66.33-10.7,1.33a16.17,16.17,0,0,0-8.6,9.2c-3.6,10.93,6.37,24.45-.58,33.62-2.06,2.7-5.26,4.36-7.28,7.08-3.57,4.81-2.63,11.6-5,17.09-2.55,5.94-9,11.46-6.6,17.45,1,2.41,3.38,4.72,2.43,7.13-.53,1.34-1.92,2.08-3,3.06-4.13,3.91-.7,12.35,5,12.27a5.34,5.34,0,0,0,3.35-1.13c3.3-2.73,1-8,1.06-12.24.15-7.45,8.23-12.47,9.86-19.74.79-3.55.45-8.18,3.72-9.78,1.44-.71,3.28-.55,4.51-1.58a5.84,5.84,0,0,0,1.58-3.59l4.2-22.36c.77-4.12,1.54-8.42.44-12.47-.62-2.29-1.81-4.41-2.28-6.73s0-5.11,2-6.37c1.35-.83,3.07-.8,4.52-1.47,4.73-2.16,1.4-6.34,1.53-9.59A2.44,2.44,0,0,0,42.59,2.75Z"/><path class="cls-1" d="M43.65,1.69c-3.77-4.57-13.82,1.27-17,4.1-7.26,6.41-5.81,15.49-4.1,24,1,4.91,2.38,10.67-.39,15.27-2.6,4.33-7.55,6.23-9.6,11.08S11,66.71,8.54,71.58c-2.09,4.23-5.92,7.91-6.61,12.75-.65,4.66,4,8,1.43,12.39-.84,1.43-2.25,2-2.88,3.71a8.38,8.38,0,0,0-.35,4.3C1.07,110.59,9,115.9,13.53,110c2-2.54,1.32-5.86,1-8.8-.78-6.57,2.32-10.4,5.85-15.53A26,26,0,0,0,24.6,74.51c.33-2,.4-2.39,1.85-3.91,1.68-1.75,1.79-1.19,3.72-2.06a5.57,5.57,0,0,0,2.88-2.65c1.47-2.85,1.59-6.94,2.17-10l2.09-11.18C38.49,38.4,40,32.25,37.91,26c-.38-1.12-.94-2.2-1.27-3.33-1.23-4.22,0-5.31,3.52-7.21,1.6-.85,3.3-1,4.38-2.7,1.81-2.9.05-7.39-.51-10.41-.35-1.89-3.24-1.09-2.89.8a32.71,32.71,0,0,1,.73,4.28,7.24,7.24,0,0,1-2.5,5.14c-.64.46-2.2.52-3,1A6.6,6.6,0,0,0,33.1,19c-.4,4.42,2.68,8.29,2.94,12.66.34,5.87-1.59,12.12-2.67,17.87L32,56.93c-.38,2-.36,5.08-1.34,6.91-1.57,2.92-5.85,2.4-7.62,5.46-1.66,2.86-1.23,6.37-2.26,9.43-1.31,3.91-4.32,7-6.5,10.38a17,17,0,0,0-3,7.85c-.23,3.15,2.52,16-5.12,12a6.58,6.58,0,0,1-3-6.42c.41-2.58,2.19-3,3.58-4.77,1.65-2.1,1.48-4.09.4-6.4-1.14-2.47-2.72-4.53-2-7.45a20.83,20.83,0,0,1,3-5.81c2.24-3.54,4.18-6.77,5.07-10.91,1-4.56,1-9.54,4.26-13.23,2.63-2.94,6.14-4.77,7.9-8.47,3.18-6.69.29-14.44-.83-21.27-.93-5.73-.76-11.52,3.72-15.81C30,6.67,39.08.85,41.53,3.81,42.75,5.3,44.86,3.17,43.65,1.69Z"/><path class="cls-1" d="M64.78,7.91c-2.43-.56-4.87,1.28-6,3.52s-1.23,4.81-1.62,7.28-1.14,5.06-3.08,6.63-4.6,2.05-5.32,4.26c-.61,1.85.65,3.75,1,5.67C50.5,39,47.88,42.38,46.94,46c-1.48,5.79,1.36,12.12-.52,17.8-.89,2.67-2.73,4.89-4.24,7.26-5,7.8-6.32,17.36-10.68,25.5a9.14,9.14,0,0,0-1,2.34c-.14.65-.13,1.31-.21,2-.29,2.48-1.88,4.63-2.38,7.08s.95,5.69,3.43,5.42c2-.22,3-2.57,3.28-4.59s.22-4.3,1.64-5.76a33.29,33.29,0,0,1,2.95-2,10.16,10.16,0,0,0,2.51-3.94A128.94,128.94,0,0,1,52.56,77.46c2.17-3.23,4.55-6.53,5.13-10.38a33.56,33.56,0,0,0-.09-6.72A83.59,83.59,0,0,1,58.16,48c.39-4.17.81-8.42,2.52-12.24,2.52-5.6,7.6-9.68,13.05-12.52a2,2,0,0,0,.94-.79A1.83,1.83,0,0,0,74.45,21,41.19,41.19,0,0,0,65.39,8.43Z"/><path class="cls-1" d="M64.78,6.41C54,5.94,58.43,20,52.38,24.72c-1.94,1.51-4.35,2-5.06,4.68-.5,1.85.29,3.08.64,4.83.75,3.86-.8,6.37-2,9.84-1.42,4.18-.82,8.22-.52,12.53.45,6.62-2.84,10.36-5.81,15.83a75.1,75.1,0,0,0-4.75,11.65c-1.63,4.69-4.2,9.17-5.66,13.85-.68,2.14-.86,4.27-1.68,6.44A15.26,15.26,0,0,0,26.39,108c-.25,2.18.34,4.89,2.32,6.19a4.32,4.32,0,0,0,5.63-.84,7.39,7.39,0,0,0,1.46-2.89c1-3.34.17-4.55,3.16-7.44,2.83-2.74,4.1-5.42,5.86-9A129.19,129.19,0,0,1,52.9,79.66C55.23,76.07,58,72.56,59,68.29c1-4.57-.06-9.46.2-14.11.35-6.5.49-13.94,3.89-19.68a23.54,23.54,0,0,1,6.37-6.78c1.73-1.3,4.42-2.17,5.84-3.81C79,19.55,69,9.57,65.84,6.85,64.38,5.6,62.25,7.71,63.72,9a35.58,35.58,0,0,1,6.39,7.35c1.06,1.6,2.59,3.32,1.93,5.19s-2.77,2.56-4.31,3.7A25.19,25.19,0,0,0,57.49,41.36c-1.43,7.78-1,15.39-1.17,23.21-.09,5.11-2.85,8.78-5.54,12.85-2.38,3.6-4.59,7.32-6.6,11.14-1.8,3.4-3,7.63-5.59,10.52-1.81,2-4,2.85-4.91,5.63-.37,1.13-.06,2.87-.61,3.88l-.16,1L29.29,109c-.44-.94,1.11-3.59,1.46-4.54,1.06-2.92,1.49-5.74,2.78-8.61,3.23-7.17,5-15,8.72-21.94,1.66-3,4-5.71,5.3-9s1.07-6.63.78-10a29.51,29.51,0,0,1,2.09-13.9,12.56,12.56,0,0,0,.94-5c-.14-2.34-1.22-3.48-.27-5.8,1.16-2.85,4.68-3.67,6.2-6.63,1.94-3.77.73-14.51,7.49-14.21C66.71,9.49,66.71,6.49,64.78,6.41Z"/><path class="cls-1" d="M42.91,6.91a14.35,14.35,0,0,0-6.49.91,2.64,2.64,0,0,0-1.49,1.09c-.38.71-.13,1.6-.4,2.35-.33.9-1.29,1.35-2,2-2.29,1.84-2.59,5.22-2.18,8.13s1.32,5.85.76,8.73-2.53,5.47-2.25,8.37a26.33,26.33,0,0,0,.72,3c1.37,6.09-3.12,11.8-4.8,17.82a19.87,19.87,0,0,1-1,3.13,15.86,15.86,0,0,1-2.12,3,48,48,0,0,0-9.6,20.68,29,29,0,0,1-1,4.12A35.35,35.35,0,0,1,7.9,96.07c-2.4,4.11-3.78,9.06-2.62,13.67"/><path class="cls-1" d="M42.91,5.41c-3.38-.12-7.38.13-9.43,3.11-1.68,2.43-4.24,5.85-4.7,9-.34,2.34.2,4.56.54,6.86.65,4.47-.55,6.81-1.6,10.86a11.69,11.69,0,0,0,0,5.13,18.44,18.44,0,0,1-1.4,10.93c-2.14,5.13-3.61,10.21-6.93,14.7a49.48,49.48,0,0,0-7.29,14.17c-.89,2.74-1.26,5.56-2,8.33-.84,3.06-2.82,5.45-4.22,8.23a20.67,20.67,0,0,0-2,13.43c.36,1.9,3.25,1.1,2.89-.79-1.29-6.78,2.25-11.17,5-16.84,1.77-3.6,2-7.76,3.22-11.57A50.48,50.48,0,0,1,23.12,66c2.47-3.26,3.1-6.89,4.67-10.63,1.46-3.5,3.34-7.05,3.5-10.91.09-2.29-.72-4.41-.69-6.68,0-2.71,1.41-4.7,1.92-7.32.85-4.3-1.57-8.54-.69-12.75.51-2.38,2.6-3.79,4-5.7.82-1.12.13-1.27,1.44-2.41,1.58-1.36,3.65-1.27,5.65-1.2s1.92-2.93,0-3Z"/><path class="cls-1" d="M68.67,14.46c-3.12,2.59-6.41,5.46-7.35,9.41-.5,2.13-.3,4.53-1.58,6.32-.88,1.23-2.34,2-3.09,3.3a7.51,7.51,0,0,0-.66,2q-3.1,13.37-6.22,26.75c-.53,2.29-1.06,4.58-1.69,6.85-2.14,7.71-5.38,15.07-8.62,22.39-3,6.8-6,13.6-9.45,20.21"/><path class="cls-1" d="M67.61,13.4c-2.78,2.34-5.7,4.84-7.13,8.28a16.26,16.26,0,0,0-.89,3.49c-.61,3.37-2.33,4.62-4,7.26-1.48,2.35-1.76,5.73-2.38,8.38L49.66,56.09C45.18,75.38,37.73,93.3,28.72,110.92c-.88,1.72,1.71,3.24,2.59,1.52,8.26-16.15,16-33.06,20.13-50.77l3.33-14.33c.92-4,1.18-9.82,3.4-13.22,1.86-2.85,3.52-3.69,4.19-7.22,1-5.23,3.42-8,7.37-11.38,1.48-1.25-.65-3.36-2.12-2.12Z"/></g></g></svg>